<?xml version="1.0" standalone="no"?>
<!DOCTYPE svg PUBLIC "-//W3C//DTD SVG 20010904//EN"
 "http://www.w3.org/TR/2001/REC-SVG-20010904/DTD/svg10.dtd">
<svg version="1.0" xmlns="http://www.w3.org/2000/svg"
 width="80.000000pt" height="14.000000pt" viewBox="0 0 80.000000 14.000000"
 preserveAspectRatio="xMidYMid meet">

<g transform="translate(0.000000,68.000000) scale(0.100000,-0.100000)"
fill="#3954A1" stroke="none">
<path d="M1290 623 c-14 -3 -32 -11 -40 -18 -8 -7 -33 -19 -55 -26 -22 -8 -53
-21 -70 -31 -16 -10 -43 -24 -60 -31 -16 -8 -43 -25 -60 -38 -16 -14 -43 -31
-60 -39 -16 -8 -34 -21 -38 -28 -5 -8 -14 -9 -25 -3 -13 7 -23 3 -41 -15 -16
-17 -30 -22 -46 -18 -13 3 -26 1 -29 -5 -10 -16 -26 -13 -26 4 0 14 27 20 72
16 18 -2 32 28 22 52 -3 9 4 29 16 46 28 37 21 77 -16 91 -37 14 -64 12 -69
-5 -15 -46 -18 -51 -23 -27 -3 19 -8 23 -25 18 -12 -3 -32 -6 -45 -6 -15 0
-26 -9 -34 -27 -9 -22 -12 -24 -15 -10 -6 22 -24 22 -56 -3 -14 -11 -30 -20
-35 -20 -10 0 -112 -48 -232 -109 -41 -21 -81 -36 -87 -34 -7 3 -20 -2 -28
-11 -9 -9 -26 -16 -38 -16 -29 0 -87 -41 -87 -62 0 -10 -4 -18 -10 -18 -5 0
-14 -9 -20 -21 -9 -15 -8 -24 1 -36 11 -12 10 -17 -4 -24 -45 -26 1 -39 48
-15 24 13 31 12 60 -6 31 -18 36 -18 64 -4 16 9 33 20 36 26 3 5 18 10 32 10
16 0 27 7 30 19 3 13 17 21 41 26 72 13 114 29 121 46 4 12 11 15 20 10 10 -7
4 -18 -28 -50 -36 -36 -41 -47 -41 -86 0 -25 4 -45 8 -45 5 0 19 -9 32 -20 33
-29 65 -35 111 -21 27 8 39 18 39 30 0 14 11 19 52 24 28 4 54 10 57 15 3 5
15 14 27 20 20 10 20 9 16 -43 -4 -47 -1 -57 21 -79 22 -22 35 -26 81 -26 33
0 60 5 68 14 8 7 24 17 36 20 12 4 22 11 22 16 0 20 34 41 57 35 14 -3 33 1
46 10 12 8 30 15 40 15 9 0 20 7 23 15 3 8 22 23 41 35 27 16 38 18 49 9 15
-13 34 -4 34 17 0 8 4 14 9 14 5 0 17 3 25 6 12 4 15 1 14 -12 -1 -11 1 -38 6
-61 8 -46 32 -57 56 -28 14 17 45 21 35 5 -4 -6 5 -10 19 -10 16 0 26 6 26 14
0 8 10 16 23 20 12 3 36 18 54 35 17 16 34 26 38 23 3 -3 -8 -18 -26 -33 -30
-26 -31 -27 -15 -57 11 -22 28 -35 54 -43 36 -10 44 -8 125 30 52 25 87 48 89
58 3 12 11 3 25 -29 21 -45 46 -68 77 -68 9 0 16 7 16 15 0 9 11 21 25 27 21
9 27 8 38 -7 16 -20 57 -13 57 11 0 8 9 14 20 14 11 0 20 5 20 10 0 6 7 10 15
10 9 0 18 7 22 17 5 14 8 13 14 -5 11 -29 27 -28 41 4 10 22 16 24 47 19 23
-3 46 0 65 10 15 8 36 15 46 15 10 0 23 7 30 15 7 8 21 15 31 15 10 0 21 5 24
10 3 6 19 10 36 10 24 0 29 4 29 25 0 16 -6 25 -15 25 -19 0 -19 14 -1 29 12
10 18 6 33 -19 21 -36 56 -38 61 -2 2 12 8 22 13 22 15 0 10 -57 -6 -70 -9 -7
-27 -36 -40 -64 -21 -45 -23 -53 -10 -72 15 -23 89 -41 109 -26 16 13 67 26
90 23 15 -2 17 2 12 24 -7 26 -5 26 24 20 37 -8 134 34 150 66 6 10 8 19 4 19
-3 0 -2 6 5 13 6 8 26 12 47 11 46 -4 99 39 83 67 -5 10 -9 25 -9 35 0 13 3
14 15 4 8 -7 15 -21 15 -31 0 -25 24 -23 75 5 29 15 40 28 39 44 0 12 5 22 13
22 7 0 13 7 13 15 0 11 12 15 50 15 43 0 50 3 50 20 0 15 -7 20 -25 20 -18 0
-25 5 -25 20 0 24 16 26 28 3 6 -10 16 -14 26 -10 20 8 21 37 1 37 -11 0 -14
7 -9 25 7 29 -1 30 -58 14 -21 -5 -38 -15 -38 -22 0 -11 -24 -15 -89 -17 -13
0 -38 -9 -56 -20 -18 -11 -39 -20 -47 -20 -8 0 -23 -8 -34 -17 -42 -37 -85
-64 -94 -58 -6 3 -10 16 -10 28 0 35 -26 64 -65 71 -19 4 -35 11 -35 16 0 23
-109 2 -138 -27 -7 -7 -24 -13 -37 -13 -25 0 -75 -39 -75 -59 0 -6 -4 -11 -10
-11 -15 0 -12 26 5 40 10 8 15 30 15 60 0 42 -4 52 -31 74 -31 26 -73 34 -84
16 -4 -6 -11 -8 -16 -5 -17 11 -50 -6 -59 -31 -9 -23 -24 -28 -75 -25 -29 2
-49 -14 -42 -34 4 -9 11 -13 17 -10 5 3 10 -1 10 -9 0 -23 -25 -19 -43 7 -13
19 -18 20 -36 10 -32 -20 -34 -16 -12 16 31 43 27 59 -18 71 -49 13 -123 -2
-207 -41 -33 -16 -74 -32 -92 -35 -17 -3 -47 -21 -68 -40 -20 -19 -42 -34 -49
-34 -7 0 -18 -7 -25 -15 -7 -8 -27 -15 -45 -15 -19 0 -35 -6 -38 -14 -4 -10
-16 -13 -42 -9 -20 3 -42 0 -50 -7 -9 -8 -15 -8 -20 0 -4 6 -16 10 -27 8 -12
-2 -23 3 -26 10 -3 9 7 12 37 11 48 -3 58 3 36 25 -21 21 -84 21 -113 0 -33
-23 -38 -11 -8 19 32 32 36 94 9 125 -16 17 -76 44 -92 41 -3 -1 -17 -4 -31
-6z m1190 -63 c11 -11 20 -26 20 -34 0 -23 -35 -7 -54 25 -15 25 -15 29 -2 29
9 0 25 -9 36 -20z m680 -115 c0 -8 -2 -15 -4 -15 -2 0 -6 7 -10 15 -3 8 -1 15
4 15 6 0 10 -7 10 -15z m-1840 -30 c0 -16 -27 -32 -37 -22 -3 4 -3 13 0 22 8
20 37 20 37 0z m-896 -20 c3 -8 1 -15 -4 -15 -6 0 -10 7 -10 15 0 8 2 15 4 15
2 0 6 -7 10 -15z m576 -43 c0 -9 -9 -23 -20 -30 -18 -11 -20 -10 -20 18 0 23
4 30 20 30 12 0 20 -7 20 -18z m420 -7 c-16 -19 -41 -20 -34 -1 5 14 34 26 43
19 2 -1 -2 -9 -9 -18z m-964 -31 c-9 -8 -20 -12 -26 -9 -15 9 -2 25 21 25 19
0 19 -1 5 -16z m462 -6 c-2 -17 -11 -24 -30 -26 -19 -2 -28 1 -28 10 0 20 21
38 43 38 13 0 18 -6 15 -22z m274 -43 c-9 -11 -18 -22 -19 -24 -2 -3 -2 7 -1
20 1 16 8 25 20 25 16 0 16 -1 0 -21z m-282 -25 c0 -5 -5 -10 -11 -10 -5 0 -7
5 -4 10 3 6 8 10 11 10 2 0 4 -4 4 -10z m587 -12 c-3 -8 -6 -5 -6 6 -1 11 2
17 5 13 3 -3 4 -12 1 -19z m-720 -10 c-3 -8 -6 -5 -6 6 -1 11 2 17 5 13 3 -3
4 -12 1 -19z m1107 -66 c-7 -37 -24 -43 -24 -9 0 21 19 51 27 43 2 -1 0 -17
-3 -34z m-1066 -39 c2 -14 -4 -22 -17 -26 -22 -5 -27 7 -15 38 8 21 28 14 32
-12z m127 7 c-3 -5 -15 -10 -26 -10 -11 0 -17 5 -14 10 3 6 15 10 26 10 11 0
17 -4 14 -10z"/>
</g>
</svg>
