<?xml version="1.0" standalone="no"?>
<!DOCTYPE svg PUBLIC "-//W3C//DTD SVG 20010904//EN"
 "http://www.w3.org/TR/2001/REC-SVG-20010904/DTD/svg10.dtd">
<svg version="1.0" xmlns="http://www.w3.org/2000/svg"
 width="26.000000pt" height="26.000000pt" viewBox="0 0 400.000000 400.000000"
 preserveAspectRatio="xMidYMid meet">

<g transform="translate(0.000000,400.000000) scale(0.100000,-0.100000)"
fill="#000000" stroke="none">
<path d="M634 3461 c-44 -11 -91 -47 -112 -84 -16 -29 -17 -79 -17 -577 0
-614 -4 -584 77 -638 l42 -27 545 0 c609 0 591 -2 642 68 l29 40 0 555 c0 542
0 555 -21 588 -11 18 -37 43 -57 56 l-37 23 -530 2 c-291 1 -544 -2 -561 -6z
m1036 -661 l0 -490 -495 0 -495 0 0 490 0 490 495 0 495 0 0 -490z"/>
<path d="M2265 3461 c-44 -11 -82 -38 -105 -76 -19 -31 -20 -48 -20 -585 0
-540 0 -553 21 -586 11 -18 37 -43 57 -56 l37 -23 550 0 c620 0 589 -4 643 77
l27 42 0 545 0 546 -23 37 c-13 20 -40 47 -60 60 l-37 23 -530 2 c-291 1 -544
-2 -560 -6z m1035 -661 l0 -490 -495 0 -495 0 0 490 0 490 495 0 495 0 0 -490z"/>
<path d="M628 1870 c-41 -12 -86 -48 -106 -83 -16 -29 -17 -79 -17 -577 0
-614 -4 -584 77 -638 l42 -27 551 0 551 0 41 27 c75 50 73 29 73 638 0 609 2
588 -73 638 l-41 27 -535 2 c-295 1 -548 -2 -563 -7z m1042 -660 l0 -490 -495
0 -495 0 0 490 0 490 495 0 495 0 0 -490z"/>
<path d="M2258 1870 c-43 -13 -84 -47 -102 -84 -14 -30 -16 -97 -16 -576 0
-609 -2 -588 73 -638 l41 -27 550 0 551 0 37 23 c20 13 47 40 60 60 l23 37 0
545 0 545 -23 37 c-13 20 -40 47 -60 60 l-37 23 -535 2 c-294 1 -547 -2 -562
-7z m1042 -660 l0 -490 -495 0 -495 0 0 490 0 490 495 0 495 0 0 -490z"/>
</g>
</svg>
