<?xml version="1.0" standalone="no"?>
<!DOCTYPE svg PUBLIC "-//W3C//DTD SVG 20010904//EN"
 "http://www.w3.org/TR/2001/REC-SVG-20010904/DTD/svg10.dtd">
<svg version="1.0" xmlns="http://www.w3.org/2000/svg"
 width="2434.000000pt" height="268.000000pt" viewBox="0 0 2434.000000 268.000000"
 preserveAspectRatio="xMidYMid meet">

<g transform="translate(0.000000,268.000000) scale(0.100000,-0.100000)"
fill="#F63E3A" stroke="none">
<path d="M17851 2423 c-9 -6 -42 -14 -74 -18 -48 -6 -61 -4 -77 10 -24 22 -99
13 -125 -15 -19 -21 -34 -18 -78 14 -27 20 -29 20 -59 3 -22 -12 -34 -15 -42
-7 -17 17 -59 12 -127 -16 -82 -33 -237 -45 -283 -21 -40 22 -67 9 -85 -42
-15 -41 -17 -43 -51 -37 -19 3 -45 6 -57 6 -15 0 -28 10 -38 30 -20 38 -63 40
-120 5 -22 -14 -45 -25 -50 -25 -6 0 -34 18 -64 40 l-53 40 -102 0 c-105 0
-183 -17 -207 -46 -8 -10 -34 -14 -87 -14 -67 0 -77 3 -98 25 -20 21 -32 25
-81 25 -32 0 -76 -5 -98 -10 -22 -6 -93 -10 -157 -10 -85 0 -128 -4 -158 -16
-37 -15 -45 -15 -105 0 -122 30 -195 14 -195 -44 0 -13 -7 -20 -20 -20 -15 0
-20 7 -20 24 0 23 -23 56 -38 56 -37 0 -257 -52 -264 -62 -4 -7 -7 -26 -6 -43
3 -26 -3 -33 -39 -53 -26 -14 -45 -33 -49 -48 -7 -27 -24 -33 -24 -9 0 9 9 35
20 57 23 48 25 79 8 96 -13 13 -248 15 -348 4 -49 -6 -56 -10 -65 -37 -5 -16
-17 -37 -25 -45 -8 -8 -24 -28 -35 -43 -18 -25 -30 -29 -83 -34 -37 -3 -67 -2
-74 5 -7 5 -35 22 -63 36 -41 21 -46 26 -25 26 33 0 50 17 50 51 0 43 -21 51
-143 56 -106 5 -116 3 -182 -24 -54 -23 -71 -35 -73 -52 -3 -17 -8 -21 -20
-16 -34 14 -208 55 -231 55 -14 0 -35 -9 -47 -21 l-23 -21 -44 22 c-39 20 -49
21 -81 10 -20 -6 -45 -21 -55 -31 -18 -20 -19 -20 -131 1 -63 11 -121 20 -131
20 -25 0 -49 -27 -49 -56 0 -14 -4 -22 -10 -19 -5 3 -10 19 -10 35 0 57 -50
77 -177 67 -76 -6 -103 -17 -103 -46 -1 -23 -32 -59 -55 -63 -15 -2 -21 3 -23
22 -4 26 -27 50 -49 50 -7 0 -28 -14 -47 -30 -29 -26 -34 -28 -29 -10 3 12 -2
29 -12 40 -16 18 -31 20 -130 20 -73 0 -115 -4 -123 -12 -15 -15 -16 -60 -2
-74 8 -8 6 -15 -4 -23 -12 -10 -31 -10 -85 -2 -96 15 -117 14 -138 -8 -10 -10
-34 -21 -53 -25 -34 -6 -33 -5 16 23 28 17 54 37 57 46 9 22 -8 61 -30 67 -26
7 -176 -12 -190 -24 -7 -6 -13 -32 -13 -59 l0 -49 -32 20 c-37 22 -93 26 -104
8 -6 -9 -10 -5 -14 11 -10 42 -31 47 -117 26 -43 -11 -93 -27 -112 -37 -46
-23 -68 -23 -76 2 -8 24 -51 37 -74 23 -10 -7 -16 -25 -16 -49 l0 -39 -85 24
-85 24 0 41 c0 39 -2 41 -33 44 -24 3 -50 -8 -105 -41 -67 -42 -78 -45 -164
-52 -87 -6 -93 -5 -132 19 -22 14 -44 26 -49 26 -4 0 -15 9 -25 20 -20 23 -21
23 -150 6 -61 -8 -100 -9 -104 -3 -9 15 -117 1 -159 -22 -22 -11 -52 -23 -67
-26 -21 -4 -29 -13 -34 -35 -8 -42 -22 -37 -29 10 -4 22 -13 45 -20 51 -25 21
-146 23 -204 4 -45 -15 -73 -16 -197 -10 -130 6 -146 5 -164 -10 -10 -10 -19
-28 -19 -41 0 -22 0 -22 -32 -6 -21 11 -65 18 -123 20 -73 3 -94 8 -112 24
-25 23 -49 20 -100 -12 -54 -33 -42 -100 17 -100 14 0 31 5 36 10 8 8 15 6 24
-5 7 -8 21 -15 31 -15 22 0 23 -4 9 -31 -9 -15 -22 -19 -68 -19 -60 0 -82 -11
-82 -42 0 -23 -19 -23 -89 2 -31 10 -74 24 -96 29 -37 10 -42 14 -54 58 -22
82 -31 100 -57 112 -48 21 -187 8 -205 -21 -5 -7 -9 -27 -9 -43 0 -17 -5 -36
-11 -42 -6 -6 -9 -23 -7 -39 2 -23 11 -31 45 -44 35 -13 40 -18 32 -33 -8 -13
-23 -17 -67 -17 -48 1 -60 4 -74 24 -16 22 -16 24 8 34 19 9 24 19 24 46 0 42
-24 59 -69 50 -29 -6 -31 -5 -31 24 0 51 -19 58 -123 42 -51 -8 -118 -15 -151
-15 -42 0 -61 -4 -67 -15 -4 -8 -16 -34 -26 -56 -18 -38 -21 -40 -38 -28 -26
19 -55 18 -115 -6 -56 -22 -66 -13 -20 20 38 27 48 64 25 90 -26 28 -55 25
-99 -12 l-39 -32 -121 11 c-133 12 -156 7 -156 -33 0 -16 -7 -27 -22 -33 -20
-7 -24 -4 -34 26 -17 48 -42 73 -74 73 -30 0 -46 -14 -51 -45 -4 -20 -34 -32
-85 -34 -24 -1 -37 7 -63 40 -38 47 -36 47 -220 2 -74 -18 -116 -23 -150 -18
-38 5 -51 3 -73 -14 -36 -29 -72 -27 -92 4 l-16 25 -196 0 c-195 0 -234 -6
-234 -35 0 -8 -12 -17 -28 -21 -61 -13 -72 -22 -72 -58 0 -42 23 -59 68 -50
21 4 31 2 35 -10 6 -14 -5 -16 -75 -16 -64 0 -79 3 -70 12 17 17 15 63 -3 78
-16 13 -306 89 -341 90 -12 0 -28 -7 -35 -16 -9 -12 -24 -15 -51 -11 -37 5
-75 -3 -127 -27 -13 -6 -59 -11 -102 -11 -67 0 -81 4 -102 23 -20 19 -39 23
-119 29 -151 10 -238 -21 -238 -85 0 -33 16 -52 45 -52 26 0 50 -25 58 -61 7
-26 5 -26 -56 -34 -114 -14 -111 -14 -118 27 -3 21 -14 47 -24 58 -17 19 -73
43 -128 55 -17 3 -31 15 -37 30 -5 14 -11 25 -12 26 -2 0 -57 6 -122 13 l-119
12 -85 -40 c-60 -29 -87 -37 -90 -28 -9 29 -39 31 -150 12 -110 -19 -112 -19
-179 1 -37 10 -83 19 -101 19 -28 0 -35 -5 -47 -33 -15 -35 -52 -64 -65 -50
-5 4 -10 19 -12 32 -5 38 -29 47 -94 33 -47 -9 -58 -9 -71 3 -16 17 -67 18
-277 8 -151 -7 -172 -15 -163 -62 5 -22 -1 -31 -35 -53 -43 -27 -70 -27 -67 1
6 63 -27 81 -97 51 -57 -25 -54 -25 -54 4 0 44 -21 50 -126 38 -103 -12 -124
-22 -124 -58 0 -19 -5 -24 -24 -24 -18 0 -25 7 -29 30 -9 41 -39 46 -123 18
-62 -21 -69 -26 -72 -51 -2 -17 4 -37 14 -48 16 -17 16 -19 0 -25 -9 -4 -23
-19 -31 -34 -12 -24 -23 -28 -92 -39 -43 -7 -87 -15 -98 -18 -16 -4 -18 -3 -8
8 18 18 16 64 -2 79 -14 11 -11 16 22 34 30 17 39 28 41 53 4 37 -20 55 -71
54 -114 -2 -548 -10 -576 -10 -18 0 -39 -5 -47 -12 -19 -15 -18 -63 1 -79 8
-7 15 -24 15 -39 0 -15 5 -32 11 -38 8 -8 8 -13 0 -17 -18 -11 -13 -50 14 -99
13 -26 21 -48 17 -51 -4 -2 -24 -7 -45 -11 -36 -7 -37 -7 -37 23 0 26 -7 35
-43 57 -24 14 -55 25 -69 25 -31 0 -37 6 -31 30 4 15 13 19 45 17 45 -2 59 13
56 58 -3 26 -9 32 -46 44 -52 16 -85 9 -99 -22 -9 -20 -22 -25 -103 -35 -88
-12 -92 -12 -108 8 -9 11 -35 23 -57 27 -22 4 -46 12 -53 20 -8 7 -30 13 -50
13 -54 -2 -142 11 -148 21 -10 16 -70 10 -87 -9 -10 -10 -17 -33 -17 -51 0
-39 18 -48 122 -56 43 -4 80 -11 83 -15 3 -5 -26 -29 -65 -54 -38 -25 -70 -50
-70 -56 0 -13 -87 -13 -95 1 -4 6 -7 37 -8 70 0 83 -11 90 -116 82 -88 -6
-111 -18 -111 -57 0 -49 84 -87 119 -54 10 11 12 8 9 -12 -3 -24 -6 -25 -61
-22 -35 3 -63 -1 -72 -8 -19 -16 -19 -64 -1 -79 8 -7 94 -18 201 -27 136 -10
193 -19 211 -31 50 -32 96 18 67 73 -15 31 -10 38 59 78 l28 17 0 -29 c0 -42
34 -80 83 -93 23 -6 53 -17 67 -24 67 -34 208 -26 225 13 6 14 18 22 36 22 22
0 25 -3 21 -28 -6 -43 21 -65 68 -57 29 5 39 3 43 -9 5 -13 24 -16 102 -16 99
0 135 10 135 35 0 22 43 18 63 -5 21 -25 42 -25 118 0 61 21 79 20 79 -5 0 -8
8 -18 18 -24 24 -13 348 13 367 29 10 9 31 11 63 6 26 -4 109 -1 186 6 120 10
142 15 166 35 15 13 35 23 44 23 8 0 20 9 26 20 12 22 41 25 123 14 37 -5 47
-11 51 -30 14 -54 110 -73 131 -26 8 19 14 21 45 15 19 -5 78 -8 130 -7 81 1
96 -2 110 -18 22 -26 120 -45 162 -31 18 6 88 17 156 23 114 11 124 11 143 -6
17 -16 27 -16 97 -6 42 7 125 12 184 12 86 0 118 4 160 21 80 32 101 37 124
29 20 -8 271 31 293 44 15 10 14 69 -1 84 -9 9 -7 12 10 12 14 0 26 -9 31 -24
12 -29 29 -36 90 -36 41 0 49 -3 59 -25 7 -14 23 -30 37 -35 14 -5 25 -14 25
-19 0 -32 185 -36 211 -5 6 8 9 27 7 44 -4 24 -1 30 14 30 11 0 27 4 36 9 23
12 233 -12 291 -33 24 -9 54 -16 66 -16 28 0 191 37 223 50 13 6 41 7 63 4 35
-6 39 -10 39 -35 0 -19 8 -34 23 -43 20 -14 29 -14 82 0 79 21 98 38 93 87
l-4 39 45 -6 c24 -3 50 -6 58 -6 12 0 12 -4 -1 -22 -48 -68 22 -134 78 -73 22
24 23 24 82 10 78 -19 131 -19 141 0 7 12 38 15 176 16 92 0 211 -5 266 -12
111 -13 147 -8 156 22 l7 21 15 -21 c14 -20 22 -21 242 -21 208 0 229 2 244
18 21 23 21 41 2 68 -13 19 -12 23 14 48 26 25 33 27 75 21 l46 -7 -25 -24
c-27 -25 -33 -62 -13 -82 16 -16 60 -15 84 2 10 8 23 11 29 6 5 -4 70 -14 144
-21 133 -13 134 -13 151 9 15 18 29 22 74 22 40 0 57 4 64 16 6 11 11 13 16 5
11 -16 98 -13 124 5 12 8 22 26 22 40 0 21 5 24 35 24 26 0 39 6 51 25 l17 26
11 -23 c16 -32 59 -35 94 -8 l27 22 6 -41 c3 -22 7 -42 10 -43 2 -2 18 -13 35
-25 37 -25 110 -47 126 -37 7 5 8 3 3 -5 -11 -19 -92 -51 -128 -51 -34 0 -101
-27 -145 -59 -15 -10 -38 -21 -52 -25 -17 -4 -14 -1 10 11 43 22 55 74 21 92
-22 12 -173 2 -376 -24 -60 -8 -164 -17 -230 -20 -209 -9 -389 -50 -418 -96
-16 -25 -45 -24 -73 2 l-22 21 -118 -21 c-65 -12 -125 -27 -132 -35 -11 -11
-20 -12 -39 -3 -34 15 -439 -9 -470 -29 -16 -10 -33 -11 -70 -5 -35 7 -59 5
-91 -6 -31 -10 -62 -12 -108 -8 -45 5 -69 4 -79 -5 -18 -15 -20 -64 -3 -78 7
-5 83 -22 168 -37 85 -15 158 -31 162 -34 5 -4 -26 -17 -67 -29 -62 -18 -76
-26 -81 -46 -8 -31 11 -66 36 -66 12 0 28 -13 40 -32 26 -43 25 -50 -6 -46
-19 2 -32 14 -45 38 -27 53 -39 62 -70 58 -27 -4 -28 -3 -16 16 41 62 41 64
29 90 -9 21 -19 26 -46 26 -30 0 -38 -6 -67 -51 -35 -55 -63 -72 -92 -57 -10
5 -38 8 -63 7 -55 -4 -79 15 -41 32 20 9 27 20 27 40 0 27 2 28 25 17 55 -25
100 47 55 92 -29 29 -61 34 -184 26 -275 -16 -286 -19 -286 -72 0 -18 -8 -23
-42 -28 -37 -6 -44 -4 -63 20 l-21 27 -109 -12 c-60 -6 -115 -17 -121 -24 -7
-6 -21 -28 -31 -47 -24 -43 -50 -50 -62 -17 -12 31 -41 41 -74 26 -20 -9 -29
-8 -50 5 -23 16 -28 16 -63 1 -49 -20 -74 -43 -74 -68 0 -17 -4 -19 -38 -13
-20 4 -53 7 -73 6 -21 0 -41 6 -49 15 -19 23 -56 18 -84 -12 -30 -32 -145 -64
-241 -67 -125 -4 -124 -4 -131 -33 -4 -16 -23 -46 -44 -68 -55 -58 -98 -132
-105 -180 -14 -91 43 -187 131 -221 40 -15 44 -20 44 -49 0 -43 21 -59 62 -50
55 12 97 9 246 -13 181 -28 208 -28 222 -1 14 26 6 65 -16 73 -9 3 -58 11
-110 18 -66 8 -94 15 -94 25 0 8 12 13 30 13 18 0 33 7 39 19 9 16 27 20 103
26 114 8 125 11 133 36 5 14 12 18 30 13 27 -7 65 11 65 30 0 21 24 36 47 30
18 -5 21 -11 16 -40 -8 -48 9 -64 68 -64 39 0 49 -4 54 -20 3 -11 10 -20 15
-20 4 0 1 -18 -6 -40 -16 -46 -10 -86 15 -99 9 -5 57 -11 108 -15 75 -5 94 -4
107 9 14 14 18 14 41 -1 26 -17 28 -16 106 24 l79 42 125 0 c82 0 132 -4 145
-12 15 -9 27 -10 48 -2 25 9 32 8 57 -14 24 -21 36 -23 74 -19 64 8 102 24
108 47 4 13 15 20 42 22 31 3 38 -1 51 -27 l15 -30 133 0 c122 0 135 2 148 20
59 82 63 85 150 85 60 0 85 4 94 15 7 8 29 15 50 15 34 0 38 -3 43 -30 8 -39
35 -45 117 -26 97 23 124 21 139 -10 10 -24 15 -26 54 -20 23 3 160 10 304 14
282 9 293 12 293 63 0 45 -27 53 -157 46 -109 -5 -114 -5 -125 16 -6 12 -16
25 -22 29 -6 4 3 8 21 8 37 0 57 26 48 62 -5 19 1 27 32 44 54 30 103 22 123
-19 l15 -32 101 0 c94 0 103 -2 120 -23 16 -19 32 -24 97 -29 74 -6 76 -6 49
-20 -37 -20 -163 -2 -192 27 -38 38 -81 17 -94 -45 -11 -54 6 -63 149 -86 172
-26 185 -25 212 29 1 2 10 -1 21 -7 11 -6 46 -11 77 -12 47 -2 61 1 72 17 8
10 12 27 9 36 -4 16 7 18 124 18 104 0 129 -3 134 -15 3 -9 18 -15 39 -15 60
0 112 81 75 118 -7 7 -28 12 -47 13 -35 1 -36 1 -8 9 43 13 137 -33 137 -66 0
-20 10 -29 58 -50 31 -14 74 -28 96 -31 48 -7 266 16 284 29 17 14 15 63 -3
78 -8 7 -15 21 -15 31 0 30 -45 34 -135 12 -79 -19 -83 -19 -104 -2 -17 14
-33 17 -66 12 -37 -5 -44 -3 -49 14 -4 11 -24 28 -46 38 -22 10 -40 21 -40 25
0 10 65 20 136 20 46 0 65 -4 77 -18 10 -10 39 -29 66 -42 56 -26 96 -22 106
10 5 16 15 20 56 20 l49 0 0 -55 c0 -63 15 -78 74 -68 33 5 36 4 36 -18 0 -13
4 -29 8 -35 12 -20 47 -25 67 -10 14 10 26 11 44 4 52 -19 96 19 77 67 -4 11
3 19 19 25 14 5 25 14 25 20 0 5 5 10 11 10 6 0 1 -12 -10 -26 -27 -34 -27
-80 -2 -94 25 -13 167 -13 192 0 13 8 19 21 19 45 0 28 4 35 19 35 10 0 33 3
50 6 27 6 31 4 31 -14 0 -11 6 -27 14 -35 18 -17 142 -30 166 -17 24 13 34 44
21 69 -9 16 -8 18 8 14 27 -7 60 14 67 42 6 26 22 30 156 38 49 4 71 1 79 -9
6 -8 29 -14 51 -14 34 0 39 -3 33 -17 -16 -38 -16 -61 0 -77 15 -15 32 -16
134 -10 75 4 124 12 140 21 18 12 43 13 127 8 77 -6 108 -4 119 5 12 10 28 10
80 -1 56 -11 67 -11 82 3 11 9 77 24 164 37 l147 22 36 -22 c31 -18 41 -20 62
-11 13 7 24 16 24 22 0 6 15 17 33 25 30 12 40 11 107 -11 55 -18 90 -24 129
-21 65 5 85 25 77 77 -3 19 -3 45 1 58 5 19 11 23 37 20 29 -3 31 -5 28 -36
-4 -41 14 -89 37 -97 9 -3 98 6 196 20 143 20 187 23 213 14 24 -8 51 -8 95 0
34 6 82 13 107 16 89 12 326 56 377 71 42 13 55 13 72 3 16 -11 33 -11 88 0
37 7 111 12 163 11 115 -2 170 16 204 67 20 29 25 31 36 18 8 -10 30 -15 66
-15 l54 0 0 -34 c0 -34 27 -66 57 -66 22 0 43 32 43 67 0 24 7 40 22 53 22 17
23 17 36 -1 7 -10 19 -19 27 -19 7 0 27 -11 43 -25 38 -32 46 -31 126 5 65 29
71 36 67 83 -2 15 7 17 61 17 79 0 100 -12 53 -29 -56 -20 -71 -77 -27 -100
25 -13 201 2 211 17 6 10 34 13 102 12 52 -1 114 -2 138 -2 65 1 492 32 519
38 15 3 24 14 29 34 8 42 24 52 80 48 44 -3 48 -5 51 -31 4 -34 34 -51 76 -43
18 4 88 10 155 16 87 6 128 13 140 24 11 10 36 16 63 16 59 0 71 14 62 77 -5
38 -3 52 10 62 9 8 16 9 16 3 0 -6 12 -24 26 -41 28 -34 64 -40 84 -16 11 13
16 8 36 -35 21 -46 26 -50 58 -50 40 0 62 27 52 65 -4 16 -1 25 10 29 25 10
32 7 39 -14 10 -33 40 -42 86 -29 22 7 46 21 53 31 7 10 16 15 20 11 3 -4 54
-12 112 -19 108 -12 184 -3 219 26 10 9 15 7 19 -8 7 -21 33 -32 78 -32 15 0
30 -5 34 -11 9 -15 153 -6 185 12 13 7 32 12 41 10 37 -5 58 17 58 63 l0 43
51 11 c57 13 81 4 103 -40 10 -19 21 -24 66 -26 37 -2 62 -10 75 -22 33 -31
70 -35 94 -11 26 26 27 45 3 69 -16 16 -14 17 56 13 84 -4 102 6 102 54 0 32
1 33 28 25 15 -5 58 -14 96 -21 67 -11 70 -11 87 10 13 16 27 21 49 19 28 -3
30 -5 18 -21 -10 -14 -35 -21 -92 -28 -43 -4 -84 -13 -92 -20 -19 -16 -18 -54
3 -74 17 -18 13 -18 198 1 91 9 129 16 173 35 27 12 67 19 106 19 64 0 86 11
86 42 0 17 6 18 73 12 82 -7 101 3 95 53 -2 21 -10 30 -33 37 -16 5 -37 11
-45 14 -18 6 31 17 110 26 l55 5 -32 -20 c-27 -17 -33 -27 -33 -56 0 -29 5
-37 28 -45 16 -6 33 -23 39 -38 9 -25 15 -27 85 -33 42 -3 112 -3 158 0 72 5
83 9 97 30 15 22 15 27 0 58 -12 24 -24 34 -44 37 -22 2 -29 9 -33 33 -6 32
-38 55 -79 55 -47 0 -11 13 75 27 94 15 122 7 80 -21 -31 -20 -34 -56 -6 -81
18 -17 23 -17 74 -2 34 9 66 12 87 8 l34 -8 -33 -7 c-45 -11 -61 -45 -37 -82
14 -22 22 -25 48 -21 18 4 59 11 92 16 33 6 192 11 353 11 281 0 295 1 323 21
46 32 36 99 -15 99 -10 0 -17 3 -13 6 3 3 54 1 114 -6 87 -10 111 -17 124 -33
15 -18 24 -19 90 -13 209 19 227 19 244 2 9 -9 25 -16 36 -16 29 0 69 30 69
51 0 23 2 23 71 3 29 -9 64 -27 76 -40 12 -13 26 -24 30 -24 8 0 177 44 198
51 6 2 20 -2 32 -9 16 -9 46 -10 120 -2 54 5 184 14 288 19 119 6 212 16 250
27 44 12 107 17 240 19 99 1 295 9 436 19 234 16 259 16 294 2 47 -20 89 -20
105 -1 8 10 31 15 71 15 33 0 68 6 79 12 16 10 25 10 47 -3 71 -41 269 -44
507 -8 128 19 146 26 153 61 l6 31 89 -7 c77 -6 97 -4 149 15 33 12 65 31 70
41 15 27 3 65 -22 73 -19 6 -19 8 -5 24 19 21 21 62 4 79 -15 15 -64 16 -73 1
-5 -7 -14 -3 -26 10 -18 19 -28 20 -112 15 -50 -3 -100 -7 -109 -9 -13 -2 -18
3 -18 19 0 31 -26 52 -83 67 -29 8 -49 20 -53 31 -3 11 -25 24 -58 33 -44 13
-79 14 -217 6 -163 -9 -199 -15 -199 -32 0 -5 -45 -9 -101 -9 -79 0 -104 3
-117 16 -13 13 -30 15 -89 12 -72 -5 -103 -18 -103 -45 0 -8 -12 -25 -27 -38
-26 -21 -30 -22 -45 -8 -21 19 -205 40 -220 25 -6 -6 -23 -6 -46 0 -20 5 -47
12 -60 15 -12 3 -29 0 -37 -7 -17 -14 -20 -66 -5 -75 6 -3 10 -17 10 -31 0
-13 9 -33 19 -43 19 -19 19 -19 -2 -25 -35 -9 -36 -8 -31 27 5 26 0 37 -25 61
-17 17 -31 37 -31 46 0 9 -6 24 -13 35 -13 16 -30 18 -213 16 -188 -1 -200 -3
-216 -22 -27 -31 -23 -66 10 -86 52 -33 54 -49 8 -57 -19 -4 -44 -17 -57 -30
-36 -35 -66 -42 -74 -16 -3 11 -9 20 -13 21 -19 2 -301 11 -327 10 -73 -2
-101 -33 -77 -86 14 -31 8 -35 -54 -35 l-53 0 6 31 c5 24 0 36 -23 60 l-28 29
66 0 c87 0 117 27 88 79 -8 16 -29 19 -147 26 l-138 7 -105 -40 c-58 -22 -112
-43 -121 -47 -13 -5 -16 -1 -12 18 5 27 -19 57 -46 57 -10 0 -44 -11 -75 -25
-66 -29 -66 -29 -66 -10 0 28 -40 37 -144 33 -87 -3 -108 -7 -150 -31 -27 -15
-61 -27 -77 -27 -30 0 -49 -23 -49 -59 0 -27 -24 -18 -38 15 -7 13 -19 24 -28
24 -9 0 -27 11 -40 25 -28 31 -57 32 -85 4 -19 -19 -29 -21 -82 -15 -34 3 -66
11 -71 16 -15 15 -62 12 -76 -6 -27 -32 -51 -37 -67 -15 -22 32 -60 25 -138
-24 -74 -47 -101 -61 -139 -71 -20 -5 -22 -2 -18 28 5 43 -11 57 -75 64 -56 7
-70 -3 -75 -56 -2 -19 -6 -34 -10 -32 -5 1 -26 2 -48 2 -36 0 -40 3 -40 24 0
29 -24 56 -48 56 -9 -1 -44 -8 -77 -16 -40 -11 -140 -19 -300 -24 -264 -9
-449 -35 -472 -67 -20 -26 -15 -50 13 -72 25 -19 25 -21 6 -21 -11 0 -27 -3
-36 -6 -12 -5 -16 1 -16 24 0 35 -22 62 -52 62 -11 0 -85 5 -164 11 -79 6
-154 9 -167 5 -13 -3 -37 -18 -53 -33 -26 -26 -42 -30 -179 -48 -90 -12 -166
-17 -190 -13 -22 4 -106 17 -186 29 l-147 22 -67 -22 c-67 -22 -69 -22 -206
-6 -113 13 -143 14 -161 3 -16 -8 -61 -11 -149 -9 -128 3 -169 -5 -169 -33 0
-20 -79 -56 -121 -56 -19 0 -76 10 -127 22 -83 20 -98 21 -153 9 -37 -7 -65
-9 -72 -3 -18 14 -117 21 -166 12 -24 -4 -55 -17 -70 -28 -22 -16 -40 -20 -92
-18 -35 2 -72 7 -83 11 -10 5 -32 3 -50 -3 -18 -7 -82 -12 -142 -12 -69 0
-114 -4 -121 -11 -9 -9 -16 -7 -29 6 -13 12 -27 16 -52 11 -53 -8 -82 -32 -82
-67 l0 -30 -29 22 c-16 11 -34 32 -40 45 -15 34 -40 31 -215 -20 -113 -33
-181 -47 -269 -55 -66 -6 -125 -15 -133 -22 -18 -15 -18 -63 1 -79 10 -8 46
-11 113 -8 l98 3 -10 -30 c-6 -16 -11 -31 -11 -32 0 -1 -72 -16 -160 -33 -148
-29 -161 -30 -199 -17 -23 9 -63 18 -91 22 -42 6 -46 9 -28 16 12 4 33 24 45
43 17 26 30 36 50 36 47 0 88 96 56 128 -16 16 -63 15 -77 -1 -9 -11 -20 -12
-58 -2 -40 10 -61 9 -152 -10 -60 -13 -109 -29 -115 -37 -10 -14 -27 -14 -166
-1 -125 13 -161 13 -185 3 -16 -7 -50 -15 -74 -19 -29 -4 -48 -13 -55 -26 -6
-10 -21 -28 -34 -38 -21 -17 -22 -25 -16 -76 l6 -58 -75 1 c-75 1 -76 1 -91
34 -15 31 -15 32 5 32 11 0 39 18 62 39 38 36 41 42 32 68 -8 22 -17 29 -43
31 -18 2 -40 -2 -48 -9 -12 -9 -23 -9 -55 1 -38 13 -45 12 -119 -19 -73 -30
-81 -31 -107 -18 -52 27 -92 31 -114 11 -26 -23 -24 -59 4 -79 22 -16 22 -16
-12 -13 -30 3 -36 8 -43 35 -6 23 -16 35 -34 39 -37 9 -157 -12 -170 -31 -6
-8 -21 -15 -32 -15 -29 0 -52 -26 -52 -59 0 -41 -12 -46 -27 -10 -7 17 -22 33
-33 36 -11 3 -20 13 -20 22 0 42 -51 54 -92 21 -19 -14 -48 -21 -116 -26 -55
-4 -96 -12 -103 -20 -8 -10 -16 -9 -38 4 -26 15 -30 15 -55 -1 -22 -15 -32
-16 -66 -6 -30 9 -53 9 -99 0 -52 -10 -65 -10 -93 5 -27 14 -49 16 -128 11
-52 -4 -133 -13 -180 -22 -96 -16 -180 -20 -226 -10 -23 5 -39 2 -58 -10 -22
-15 -36 -16 -79 -9 -64 11 -348 12 -398 1 -24 -5 -40 -15 -47 -32 -10 -21 -14
-23 -44 -14 -18 5 -105 11 -192 14 -128 4 -164 2 -181 -9 -13 -8 -62 -18 -111
-22 -49 -3 -95 -11 -101 -17 -7 -5 -13 -22 -13 -38 0 -16 -4 -29 -10 -29 -5 0
-10 15 -10 33 0 20 -8 41 -19 51 -17 16 -25 16 -122 0 -72 -11 -128 -14 -182
-9 -90 8 -107 0 -107 -50 l0 -33 -37 13 c-146 50 -182 55 -203 30 -7 -9 -10
-27 -7 -44 6 -28 4 -30 -26 -33 -23 -2 -35 -10 -45 -31 -18 -37 -40 -36 -34 2
3 23 -2 33 -28 51 -28 20 -38 22 -108 15 -42 -4 -83 -12 -90 -17 -13 -11 -81
12 -113 39 -8 7 -42 16 -75 19 -59 6 -61 6 -212 -70 -83 -42 -157 -85 -164
-96 -7 -11 -19 -20 -26 -20 -7 0 -18 -11 -24 -25 -9 -21 -18 -25 -55 -25 -23
0 -43 4 -43 8 0 5 13 21 30 35 17 15 30 35 30 45 0 10 5 23 11 29 15 15 7 64
-13 77 -12 7 -54 7 -145 -1 -70 -7 -129 -11 -130 -9 -2 1 3 11 10 20 12 16 29
18 122 18 102 0 109 1 131 25 22 23 24 24 46 9 33 -23 65 -20 84 9 16 24 20
25 123 25 117 0 131 6 131 53 0 29 1 29 43 23 23 -3 77 -9 119 -12 66 -6 78
-10 84 -27 6 -19 12 -20 147 -14 113 4 145 2 163 -9 19 -13 30 -13 89 1 59 13
68 13 81 0 32 -31 84 -12 84 31 0 32 53 41 81 13 18 -18 29 -20 78 -15 154 17
150 16 177 52 33 43 79 48 94 9 7 -19 17 -25 41 -25 18 0 40 6 48 14 9 7 31
18 49 24 26 9 34 9 38 -3 10 -25 38 -26 159 -5 117 20 142 25 273 56 35 8 67
12 71 10 4 -3 54 2 112 10 94 13 105 13 116 -1 15 -21 179 -60 204 -49 10 5
40 41 66 79 l48 70 65 -3 c56 -3 70 0 103 22 42 29 77 34 77 11 0 -9 -14 -17
-37 -21 -57 -10 -83 -30 -83 -64 0 -42 28 -54 113 -47 38 3 75 11 83 18 9 8
32 9 67 5 65 -9 97 -10 104 -3 3 4 8 20 12 38 5 25 14 35 47 48 49 19 74 38
74 57 0 8 10 14 25 14 35 0 105 -37 105 -55 0 -30 45 -46 127 -45 43 0 108 -3
144 -6 62 -6 70 -5 101 20 30 22 45 26 104 26 38 0 85 4 105 9 27 6 44 4 70
-10 19 -10 44 -18 56 -19 31 0 56 28 50 58 -3 14 0 36 5 48 11 23 11 23 38
-15 25 -33 34 -39 80 -44 34 -4 66 -1 93 8 27 10 83 15 155 15 l114 0 11 30
c9 23 25 35 77 57 83 36 110 36 132 0 17 -25 22 -27 88 -27 62 0 74 3 96 25
25 25 25 25 162 19 127 -6 139 -8 160 -30 30 -32 49 -30 117 9 71 40 83 56 69
95 -18 48 6 55 152 47 87 -5 124 -11 124 -20 0 -17 33 -45 54 -45 9 0 48 16
86 35 l70 35 0 -24 c0 -13 6 -28 13 -34 6 -5 64 -13 127 -17 63 -4 151 -11
195 -16 63 -7 84 -6 101 6 12 7 46 15 75 17 47 3 55 6 67 31 16 34 67 39 77 7
11 -34 35 -38 173 -31 140 7 152 11 152 57 0 40 55 46 85 9 21 -26 90 -45 167
-45 32 0 40 4 48 26 7 17 15 24 28 20 106 -31 136 -30 147 5 9 28 108 28 132
-1 21 -24 81 -28 89 -5 4 10 21 15 54 15 51 0 80 18 80 49 0 31 42 61 86 60
l39 -1 -45 -11 c-42 -11 -45 -14 -48 -49 -5 -60 17 -64 172 -34 126 25 146 34
146 67 0 13 13 16 73 16 74 0 74 0 83 -31 7 -25 15 -32 40 -34 44 -4 261 52
285 74 26 23 88 20 109 -6 37 -46 164 -51 335 -15 91 19 122 22 138 13 28 -14
195 -3 250 18 85 32 259 45 296 22 14 -9 47 -8 142 5 68 9 164 20 212 23 55 5
94 12 103 21 17 17 17 56 3 273 -8 122 -15 169 -26 182 -14 15 -40 17 -255 15
-162 -1 -246 -6 -257 -14z m-1448 -140 c-7 -2 -19 -2 -25 0 -7 3 -2 5 12 5 14
0 19 -2 13 -5z m-525 -28 c-3 -3 -30 -2 -59 2 l-54 8 50 5 c47 5 76 -2 63 -15z
m1742 11 c0 -2 -7 -7 -16 -10 -8 -3 -12 -2 -9 4 6 10 25 14 25 6z m520 -12 c0
-8 -5 -12 -10 -9 -6 4 -8 11 -5 16 9 14 15 11 15 -7z m-573 -28 c-12 -24 -37
-25 -37 -1 0 13 14 23 37 24 8 1 8 -5 0 -23z m-2317 -45 c0 -10 -76 -31 -85
-23 -13 13 -2 21 33 25 20 2 40 4 45 5 4 1 7 -2 7 -7z m-2500 -16 c0 -8 -9
-15 -20 -15 -13 0 -18 5 -14 15 4 8 12 15 20 15 8 0 14 -7 14 -15z m-484 -11
c-3 -9 -6 -20 -6 -25 0 -5 -9 -9 -20 -9 -15 0 -20 7 -20 25 0 20 5 25 26 25
20 0 25 -4 20 -16z m414 -24 c0 -5 -8 -10 -17 -10 -15 0 -16 2 -3 10 19 12 20
12 20 0z m-2230 -73 c0 -9 -76 -16 -113 -10 -34 5 -38 9 -35 32 3 23 9 27 47
31 38 4 49 1 73 -22 15 -14 28 -28 28 -31z m1240 33 c0 -5 -4 -10 -10 -10 -5
0 -10 5 -10 10 0 6 5 10 10 10 6 0 10 -4 10 -10z m1935 -9 c-14 -13 -75 -24
-75 -13 0 16 13 22 49 22 21 0 31 -4 26 -9z m4160 -9 c29 -5 39 -10 24 -11
-14 0 -48 -8 -74 -16 -52 -15 -66 -11 -86 28 -10 18 -8 19 38 14 26 -4 71 -10
98 -15z m-4651 -22 c21 -1 20 -1 -3 -20 -25 -22 -56 -26 -66 -10 -10 17 -58
11 -90 -10 -36 -24 -45 -25 -45 -5 0 8 8 15 18 15 9 0 31 9 47 20 22 15 41 18
74 15 24 -3 53 -5 65 -5z m-2244 -9 c0 -13 -39 -21 -112 -21 -73 0 -103 -17
-96 -54 4 -19 -1 -21 -58 -24 -67 -3 -77 7 -67 61 5 24 8 25 131 34 178 14
202 14 202 4z m1184 0 c5 -8 -58 -31 -88 -31 -25 0 -19 15 12 27 34 14 69 16
76 4z m1206 -1 c0 -13 -20 -13 -40 0 -12 8 -9 10 13 10 15 0 27 -4 27 -10z
m783 3 c-7 -2 -21 -2 -30 0 -10 3 -4 5 12 5 17 0 24 -2 18 -5z m-4350 -37 c12
-8 38 -17 57 -21 72 -15 65 -24 -16 -25 -76 0 -82 2 -87 22 -4 13 -1 26 6 30
16 10 14 10 40 -6z m2154 -6 c14 -11 31 -20 38 -20 10 0 29 -60 21 -66 -9 -8
-54 -11 -64 -5 -12 7 -35 111 -25 111 3 0 16 -9 30 -20z m-239 -10 c7 -11 23
-20 37 -20 20 0 25 -5 25 -25 0 -23 -4 -25 -44 -25 -24 0 -51 -3 -60 -6 -12
-5 -16 0 -16 19 0 14 -7 32 -15 41 -14 13 -13 16 2 25 28 16 57 13 71 -9z
m-4781 -45 c-18 -9 -23 -8 -29 6 -4 9 -12 21 -20 25 -9 6 -6 10 12 15 18 4 29
1 42 -15 15 -19 15 -21 -5 -31z m5893 40 c0 -4 -86 -65 -92 -65 -2 0 -2 59 1
68 2 4 91 2 91 -3z m-6406 -14 c3 -5 -1 -12 -10 -15 -25 -10 -34 -7 -34 9 0
16 35 21 44 6z m3699 2 c-13 -2 -33 -2 -45 0 -13 2 -3 4 22 4 25 0 35 -2 23
-4z m2347 -32 c0 -13 -37 -24 -50 -16 -6 4 -8 11 -5 16 8 12 55 12 55 0z
m-5255 -20 c3 -5 1 -12 -5 -16 -5 -3 -10 1 -10 9 0 18 6 21 15 7z m5054 -11
c51 0 58 -4 43 -27 -5 -8 -21 -6 -62 8 -30 10 -63 19 -75 19 -16 0 -17 2 -6 9
9 6 22 6 32 0 10 -5 40 -9 68 -9z m-6402 -15 c9 -3 8 -12 -5 -35 -9 -16 -19
-30 -22 -30 -12 0 -104 39 -92 40 7 0 17 11 23 24 11 24 26 24 96 1z m1808 15
c7 -12 -70 -50 -100 -49 -19 0 -19 0 -2 13 9 7 17 18 17 24 0 21 73 31 85 12z
m3709 4 c25 -4 46 -9 46 -13 0 -9 -114 0 -124 10 -12 11 12 12 78 3z m11353
-25 c-24 -7 -43 4 -33 19 4 7 15 6 31 -1 l24 -12 -22 -6z m670 25 c-3 -3 -12
-4 -19 -1 -8 3 -5 6 6 6 11 1 17 -2 13 -5z m-16615 -25 c70 -10 90 -9 103 1 9
7 15 8 15 2 0 -6 7 -18 16 -27 13 -12 14 -18 4 -30 -14 -17 -65 -13 -115 10
-16 8 -55 17 -86 20 -46 5 -58 10 -62 27 -5 16 -2 19 16 14 12 -2 61 -10 109
-17z m-2702 -4 c0 -23 36 -36 80 -29 36 6 40 4 40 -14 0 -12 -9 -22 -22 -26
-35 -9 -98 -7 -98 3 0 18 -32 41 -56 41 -31 0 -32 27 -1 33 44 8 57 7 57 -8z
m1214 -4 c12 -14 14 -21 6 -26 -7 -4 -10 -22 -8 -41 4 -31 2 -34 -22 -34 -14
0 -33 9 -43 20 -23 28 -43 25 -78 -10 -23 -22 -31 -26 -35 -15 -3 8 1 22 10
30 9 9 16 20 16 25 0 5 18 14 40 20 22 6 44 20 50 30 14 25 42 26 64 1z m367
-22 c-12 -11 -21 -28 -21 -37 0 -10 -9 -25 -20 -35 -11 -9 -20 -28 -20 -42 0
-19 -7 -26 -32 -33 -19 -5 -46 -4 -63 1 -28 8 -30 12 -32 65 -2 33 -9 62 -19
73 -15 16 -12 18 53 24 37 4 84 10 103 14 19 5 43 4 53 -1 18 -9 18 -11 -2
-29z m1779 7 c7 -22 8 -46 2 -68 -8 -30 -11 -33 -43 -30 -19 2 -42 12 -52 23
-10 10 -24 19 -32 19 -11 0 -13 8 -9 33 8 42 29 57 80 57 39 0 43 -2 54 -34z
m700 20 c0 -7 3 -28 6 -45 6 -28 4 -31 -17 -31 -13 0 -31 5 -39 10 -13 9 -13
12 1 20 9 5 20 21 23 35 7 26 26 35 26 11z m14762 -13 c11 -24 21 -29 66 -34
61 -8 81 -19 33 -19 -38 0 -241 61 -241 72 0 4 29 8 64 8 61 0 66 -2 78 -27z
m-14925 4 c21 -12 21 -12 2 -36 -23 -28 -24 -27 -32 17 -7 35 -3 37 30 19z
m4913 -19 c0 -4 -10 -10 -22 -14 -13 -3 -31 -13 -40 -22 -16 -14 -18 -13 -18
5 0 26 61 68 72 50 4 -7 8 -15 8 -19z m2050 8 c0 -3 -4 -8 -10 -11 -5 -3 -10
-1 -10 4 0 6 5 11 10 11 6 0 10 -2 10 -4z m8350 -29 c9 -3 3 -6 -12 -6 -20 -1
-28 4 -28 15 0 12 4 14 13 7 6 -6 19 -13 27 -16z m-16899 -10 c73 -5 101 -3
115 7 21 16 44 10 44 -10 0 -15 -2 -15 -125 -19 -44 -2 -106 -6 -139 -10 l-59
-6 24 29 c13 16 29 26 34 22 6 -4 53 -10 106 -13z m2827 -3 l37 -26 -34 6
c-18 3 -42 6 -52 6 -12 0 -19 7 -19 20 0 27 24 25 68 -6z m1545 -22 c-54 -4
-73 2 -73 22 0 24 70 25 97 1 l22 -20 -46 -3z m-8961 3 c-3 -16 2 -33 13 -45
16 -18 14 -18 -49 3 -71 23 -97 18 -105 -19 -2 -10 -17 -31 -34 -47 -23 -22
-35 -27 -47 -19 -27 17 -22 37 15 55 19 9 35 23 35 32 0 9 9 15 22 15 12 0 30
7 40 17 15 14 59 27 104 32 7 1 9 -9 6 -24z m1829 -55 c40 -33 0 -23 -42 11
-31 24 -47 30 -74 27 -46 -5 -35 4 28 23 l52 15 6 -28 c4 -15 17 -37 30 -48z
m5401 55 c6 -28 -11 -33 -59 -14 l-28 11 25 13 c38 21 57 18 62 -10z m-6617
-24 c21 -41 50 -48 86 -22 26 20 49 27 49 16 0 -2 -8 -18 -18 -34 -13 -22 -22
-27 -32 -20 -27 16 -59 10 -76 -16 -19 -29 -47 -40 -71 -26 -17 10 -17 10 -1
11 27 0 42 37 29 67 -9 19 -9 29 0 39 15 19 16 18 34 -15z m21126 -3 c60 -18
109 -36 109 -40 0 -21 -33 -17 -89 11 -41 21 -75 31 -106 31 -33 0 -45 4 -45
15 0 20 6 20 131 -17z m-13607 -20 c9 -36 8 -38 -23 -38 -28 0 -29 1 -18 30
13 36 32 39 41 8z m10944 -17 c4 -23 2 -24 -50 -18 -29 4 -66 7 -83 8 l-30 0
40 19 c22 11 58 18 80 17 34 -2 41 -6 43 -26z m-17658 -1 c0 -11 8 -27 19 -36
35 -31 7 -63 -56 -64 -28 0 -29 10 -3 33 22 19 25 39 10 68 -9 16 -7 19 10 19
13 0 20 -7 20 -20z m1114 -5 c-4 -8 -10 -12 -15 -9 -11 6 -2 24 11 24 5 0 7
-7 4 -15z m5933 9 c-3 -3 -12 -4 -19 -1 -8 3 -5 6 6 6 11 1 17 -2 13 -5z
m11756 -18 c25 -19 21 -26 -8 -13 -14 7 -25 15 -25 20 0 11 13 8 33 -7z
m-10884 -29 c-29 -6 -50 -5 -68 4 l-26 13 40 6 c22 3 53 1 68 -5 l29 -10 -43
-8z m9301 19 c0 -8 -24 -20 -60 -30 -47 -13 -63 -23 -70 -42 -5 -13 -11 -24
-14 -24 -2 0 -40 -7 -83 -15 -100 -19 -113 -19 -85 1 14 10 22 26 22 44 0 31
2 32 185 65 93 17 105 17 105 1z m-16947 -37 c-10 -3 -44 -9 -75 -12 -46 -4
-56 -3 -51 9 3 8 19 14 37 14 18 0 41 6 52 14 17 13 21 12 37 -2 18 -16 18
-16 0 -23z m1082 31 c20 -8 19 -9 -1 -9 -12 -1 -35 -4 -51 -7 -22 -4 -32 -2
-36 10 -5 13 1 16 31 15 20 0 46 -4 57 -9z m8295 0 c0 -5 -8 -10 -17 -10 -15
0 -16 2 -3 10 19 12 20 12 20 0z m10050 -9 c0 -18 -39 -22 -67 -7 l-28 15 48
1 c26 0 47 -4 47 -9z m-13570 -22 c21 -6 22 -7 5 -8 -28 -1 -45 -20 -45 -48 0
-36 -38 -31 -52 7 -6 19 -19 32 -34 36 -29 7 -154 -34 -161 -54 -4 -9 -9 -10
-19 -1 -9 8 -37 10 -80 6 -56 -4 -69 -2 -85 14 -10 10 -29 19 -41 19 -13 0
-18 4 -12 9 5 5 63 12 129 16 66 4 156 11 200 15 81 6 150 3 195 -11z m2813 5
c-12 -31 -52 -62 -90 -68 -21 -4 -46 -10 -56 -12 -16 -5 -17 -3 -7 16 6 12 9
32 6 45 -5 21 -2 24 31 28 96 10 123 8 116 -9z m9584 -9 c-4 -8 -11 -15 -17
-15 -6 0 -6 7 2 20 14 22 24 19 15 -5z m-11599 -10 c-7 -16 -19 -25 -33 -25
-18 0 -21 4 -17 25 3 20 10 25 33 25 27 0 28 -2 17 -25z m560 -5 c-56 -35 -58
-36 -58 -12 0 10 -5 23 -12 30 -9 9 2 12 53 12 l64 0 -47 -30z m875 11 c-8
-29 27 -55 92 -70 53 -12 84 -31 85 -53 0 -15 -58 -8 -63 7 -6 15 -97 65 -119
65 -7 0 -21 7 -31 14 -15 12 -16 18 -7 35 14 27 50 29 43 2z m10866 -8 c11
-21 9 -23 -14 -23 -27 0 -33 18 -13 38 6 6 12 11 13 9 1 -1 8 -12 14 -24z
m-3039 13 c0 -3 -4 -8 -10 -11 -5 -3 -10 -1 -10 4 0 6 5 11 10 11 6 0 10 -2
10 -4z m375 -28 c5 -4 25 -8 45 -8 26 0 31 -3 20 -10 -8 -5 -31 -7 -51 -4 -27
5 -49 -1 -97 -25 -72 -37 -72 -36 -72 -12 0 14 10 21 33 26 40 9 57 22 57 46
0 16 3 17 28 7 15 -7 31 -15 37 -20z m-855 2 c27 -8 18 -15 -32 -23 -22 -3
-28 0 -28 14 0 20 17 23 60 9z m2530 -4 c0 -3 -4 -8 -10 -11 -5 -3 -10 -1 -10
4 0 6 5 11 10 11 6 0 10 -2 10 -4z m190 -30 c0 -30 -4 -34 -32 -40 -27 -5 -36
-2 -51 16 -44 56 -43 58 23 58 l60 0 0 -34z m-19745 4 c-3 -5 -23 -10 -43 -10
-28 0 -33 3 -22 10 20 13 73 13 65 0z m7658 -17 c-7 -2 -19 -2 -25 0 -7 3 -2
5 12 5 14 0 19 -2 13 -5z m11727 -18 c0 -20 -5 -25 -25 -25 -41 0 -24 37 23
49 1 1 2 -10 2 -24z m-10704 -11 c-3 -9 -6 -20 -6 -25 0 -5 -8 -9 -17 -9 -20
0 -53 -28 -53 -47 0 -7 -8 -13 -18 -13 -19 0 -69 83 -53 88 5 2 38 7 72 11 35
5 68 9 73 10 4 0 5 -6 2 -15z m264 6 c0 -5 -7 -7 -15 -4 -8 4 -15 8 -15 10 0
2 7 4 15 4 8 0 15 -4 15 -10z m10600 0 c0 -5 -5 -10 -11 -10 -5 0 -7 5 -4 10
3 6 8 10 11 10 2 0 4 -4 4 -10z m-1995 -10 c3 -5 1 -10 -4 -10 -6 0 -11 5 -11
10 0 6 2 10 4 10 3 0 8 -4 11 -10z m-9115 -57 c11 -25 18 -48 16 -50 -2 -2
-28 -4 -57 -5 -50 0 -56 3 -86 38 -17 21 -30 41 -27 44 4 4 34 8 121 19 7 0
21 -20 33 -46z m9640 28 c0 -11 10 -27 22 -35 27 -19 19 -20 -73 -4 l-72 13
49 22 c61 27 74 28 74 4z m-11184 -26 c-23 -17 -36 -19 -36 -6 0 11 18 19 40
20 11 0 10 -3 -4 -14z m1284 -30 c24 -24 41 -47 39 -50 -3 -2 -43 -12 -89 -21
-60 -11 -86 -12 -88 -5 -7 20 -33 41 -52 41 -11 0 -58 -14 -105 -31 -76 -28
-90 -30 -113 -19 l-27 13 40 13 c22 7 73 23 113 35 40 11 80 28 88 36 13 13
37 19 139 32 6 0 31 -19 55 -44z m7390 41 c0 -11 -19 -15 -25 -6 -3 5 1 10 9
10 9 0 16 -2 16 -4z m230 -16 c-8 -5 -24 -9 -35 -9 l-20 0 20 9 c11 5 27 9 35
9 13 1 13 0 0 -9z m-9050 -20 c0 -5 -10 -10 -22 -9 -22 0 -22 1 -3 9 11 5 21
9 23 9 1 1 2 -3 2 -9z m8431 -10 c-19 -5 -38 -15 -43 -24 -5 -9 -20 -16 -34
-16 -21 0 -23 3 -14 19 9 19 39 27 100 28 18 1 16 -1 -9 -7z m-2072 -37 c1 -1
-4 -12 -13 -25 -9 -12 -16 -30 -16 -40 0 -15 -9 -18 -62 -18 l-63 0 0 35 c0
31 3 35 25 35 14 0 41 8 60 18 25 13 39 15 50 8 8 -6 17 -11 19 -13z m1813 13
c17 -12 17 -14 -1 -30 -16 -15 -19 -15 -31 -1 -7 8 -23 15 -36 15 -36 0 -38
18 -2 23 18 2 38 4 43 5 6 1 18 -5 27 -12z m-7340 -19 l38 -13 -43 -41 c-51
-49 -81 -61 -103 -39 -17 18 -60 21 -69 6 -4 -6 -12 -4 -21 5 -9 8 -33 15 -53
15 -21 0 -43 6 -49 13 -8 10 -2 12 28 9 32 -3 41 0 55 22 15 23 24 26 98 29
45 1 82 4 82 5 0 1 17 -4 37 -11z m7177 -23 c-12 -25 -32 -43 -60 -56 -51 -22
-60 -17 -26 14 13 13 26 32 28 43 4 17 17 24 70 34 4 0 -2 -15 -12 -35z
m-1953 -29 c9 -22 23 -37 39 -41 20 -5 23 -9 14 -20 -17 -21 -45 -17 -63 10
-8 14 -30 27 -48 31 -81 16 -88 26 -30 42 63 18 72 16 88 -22z m-6253 -4 c-6
-25 -5 -25 -108 -2 l-40 9 45 2 c25 1 59 5 75 9 37 9 35 10 28 -18z m481 -41
c-4 -18 -1 -36 6 -45 16 -19 3 -20 -16 0 -9 8 -33 15 -57 15 l-41 0 44 29 c59
39 71 39 64 1z m-1444 4 c0 -12 -6 -15 -22 -10 -13 3 -34 6 -48 7 l-25 1 25 8
c43 14 70 11 70 -6z m405 0 c-9 -10 -14 -25 -12 -35 3 -11 1 -19 -4 -19 -10 0
-12 53 -2 63 3 4 13 7 20 7 11 0 11 -3 -2 -16z m-585 -18 c0 -16 -7 -26 -22
-30 -43 -11 -47 -8 -35 24 15 39 57 43 57 6z m6388 4 c27 0 32 -4 32 -24 0
-18 -10 -31 -39 -46 -22 -13 -45 -37 -55 -56 -19 -40 -23 -40 -122 -13 -54 15
-89 19 -121 14 -37 -5 -59 -1 -125 26 -73 29 -79 34 -62 46 10 7 24 11 30 9 6
-2 33 -8 60 -12 44 -6 49 -5 68 19 l21 26 105 -10 c101 -11 105 -10 120 10 10
13 22 19 35 16 11 -3 35 -5 53 -5z m2837 -19 c-3 -6 -16 -11 -28 -11 -21 1
-21 1 3 15 27 14 36 13 25 -4z m-8765 -21 c0 -12 -57 -12 -85 0 -15 6 -6 9 33
9 28 1 52 -3 52 -9z m5086 3 c13 -5 6 -10 -27 -20 -53 -15 -59 -16 -59 -4 0 5
12 14 28 19 34 13 37 13 58 5z m-152 -121 c1 -36 -1 -37 -81 -45 -40 -5 -43
-3 -43 19 0 16 6 24 18 24 9 1 33 9 52 19 45 24 53 22 54 -17z m3073 32 c-3
-3 -12 -4 -19 -1 -8 3 -5 6 6 6 11 1 17 -2 13 -5z m-10153 -21 c3 -10 9 -24
12 -30 4 -9 -6 -13 -36 -13 -22 0 -51 -7 -64 -15 -21 -14 -26 -14 -55 2 -17
10 -31 26 -31 35 0 22 17 26 146 36 13 1 24 -5 28 -15z m9430 -8 c4 -10 -1
-15 -14 -15 -11 0 -20 7 -20 15 0 8 6 15 14 15 8 0 16 -7 20 -15z m-9162 -7
c21 -6 37 -16 35 -22 -3 -8 -129 -66 -144 -66 -1 0 -3 11 -3 24 0 26 -15 42
-45 48 -11 3 9 9 45 15 36 6 67 11 69 12 2 0 21 -4 43 -11z m1533 -39 c36 -39
40 -41 81 -35 31 4 45 1 54 -10 7 -8 11 -16 9 -19 -3 -2 -89 -7 -193 -11 -182
-7 -188 -7 -184 12 3 16 14 19 68 22 71 3 90 13 90 47 0 20 10 31 31 34 3 1
23 -18 44 -40z m3892 2 c9 -24 8 -31 -4 -35 -28 -11 -42 -6 -55 22 -12 24 -20
28 -73 33 -56 5 -54 6 30 7 l91 2 11 -29z m1879 3 c-3 -9 -6 -27 -6 -40 0 -20
-5 -24 -31 -24 l-32 0 27 21 c14 11 26 29 26 40 0 10 5 19 11 19 6 0 8 -7 5
-16z m-8046 -74 c0 -22 47 -29 96 -14 26 8 65 14 87 14 32 0 38 -3 33 -16 -3
-9 -6 -18 -6 -20 0 -2 -11 -2 -24 2 -17 4 -43 -5 -88 -30 -46 -25 -67 -33 -75
-25 -8 8 -37 4 -103 -11 -68 -17 -94 -20 -103 -11 -8 8 -6 15 11 27 14 10 22
26 22 45 0 30 1 31 39 24 27 -4 48 -2 68 9 33 18 43 19 43 6z m1654 -6 c10
-26 7 -31 -19 -36 -18 -4 -26 0 -30 13 -4 11 -11 19 -16 19 -5 0 -9 5 -9 10 0
17 67 12 74 -6z m6011 -17 c10 -8 15 -19 12 -24 -11 -18 -96 -26 -129 -12
l-30 12 43 18 c54 22 80 23 104 6z m-2845 -46 l0 -25 -20 22 c-22 23 -46 28
-70 13 -8 -6 -18 -7 -23 -4 -5 3 4 13 20 22 40 25 93 9 93 -28z m-3030 3 c0
-14 -3 -14 -15 -4 -8 7 -15 14 -15 16 0 2 7 4 15 4 8 0 15 -7 15 -16z m2807
10 c-3 -3 -12 -4 -19 -1 -8 3 -5 6 6 6 11 1 17 -2 13 -5z m533 -4 c-36 -12
-70 -12 -70 0 0 6 21 10 48 9 38 -1 42 -2 22 -9z m-3866 -55 c4 -11 -2 -15
-22 -15 -26 1 -26 1 -8 15 24 18 23 18 30 0z m1238 5 c-42 -10 -45 -13 -51
-61 l-6 -40 -35 30 -35 29 24 26 c21 22 32 26 80 25 50 -1 52 -2 23 -9z m-280
-34 c3 -30 1 -35 -20 -39 -18 -3 -22 -1 -17 11 3 8 -2 25 -10 38 -15 23 -15
24 14 24 25 0 29 -4 33 -34z m-230 12 c-18 -18 -14 -53 9 -73 17 -16 24 -17
51 -7 31 11 48 9 34 -5 -9 -9 -100 -8 -150 1 -32 6 -35 10 -30 31 3 13 1 33
-6 44 -10 20 -8 21 47 21 44 0 54 -3 45 -12z m2895 -21 c-6 -20 -27 -19 -27 2
0 14 5 19 15 14 9 -3 14 -10 12 -16z m-3482 -9 c12 -28 53 -35 92 -15 24 13
31 13 48 1 10 -8 26 -14 36 -14 9 0 24 -11 33 -24 21 -33 66 -42 106 -21 27
14 36 14 61 3 16 -7 29 -20 29 -28 0 -9 6 -24 14 -35 13 -20 12 -20 -168 -12
-99 4 -207 5 -239 2 -44 -4 -62 -1 -73 10 -9 8 -26 15 -40 15 -19 0 -24 5 -24
25 0 22 4 25 40 25 45 0 66 25 56 66 -8 31 16 33 29 2z m1873 2 c13 -21 66
-28 77 -10 3 6 15 10 26 10 14 0 19 -7 19 -27 0 -14 7 -34 16 -44 14 -16 13
-18 -18 -24 -18 -4 -47 -14 -65 -22 -30 -14 -35 -13 -82 14 -47 26 -51 31 -51
66 0 30 5 40 23 47 33 13 41 12 55 -10z m-2201 -55 c14 -5 12 -9 -11 -20 -39
-20 -44 -19 -39 9 3 15 10 23 19 20 8 -2 22 -6 31 -9z m3988 -15 c3 -5 -1 -10
-9 -10 -9 0 -16 5 -16 10 0 6 4 10 9 10 6 0 13 -4 16 -10z m-4665 -38 c0 -5
-11 -18 -25 -30 -55 -48 -18 -105 62 -95 l45 5 -17 -26 c-17 -25 -21 -26 -106
-26 -49 0 -89 3 -89 8 0 4 14 30 30 57 16 28 30 58 30 67 0 10 12 24 28 32 31
17 42 19 42 8z m2104 -51 c4 -5 -18 -12 -51 -16 -80 -9 -91 -13 -98 -36 -5
-15 -16 -19 -50 -19 -72 0 -120 33 -82 57 6 4 50 10 97 13 47 3 106 6 132 8
25 2 49 -1 52 -7z m-1619 -41 c3 -5 -1 -10 -10 -10 -9 0 -13 5 -10 10 3 6 8
10 10 10 2 0 7 -4 10 -10z m-1505 -74 c0 -3 -4 -8 -10 -11 -5 -3 -10 -1 -10 4
0 6 5 11 10 11 6 0 10 -2 10 -4z m98 -13 c-10 -2 -26 -2 -35 0 -10 3 -2 5 17
5 19 0 27 -2 18 -5z"/>
<path d="M21446 1945 c-30 -28 -33 -55 -8 -78 26 -24 59 -21 87 8 65 64 -11
133 -79 70z"/>
<path d="M23978 1899 c-12 -6 -18 -22 -18 -45 0 -39 15 -49 98 -60 37 -5 51
-2 61 9 20 25 10 70 -19 83 -38 18 -103 25 -122 13z"/>
<path d="M4925 556 c-14 -21 -16 -32 -7 -50 12 -28 51 -36 169 -36 75 0 84 2
97 23 17 25 12 63 -9 71 -8 3 -63 8 -123 12 l-110 7 -17 -27z"/>
</g>
</svg>
