<?xml version="1.0" standalone="no"?>
<!DOCTYPE svg PUBLIC "-//W3C//DTD SVG 20010904//EN"
 "http://www.w3.org/TR/2001/REC-SVG-20010904/DTD/svg10.dtd">
<svg version="1.0" xmlns="http://www.w3.org/2000/svg"
 width="1452.000000pt" height="63.000000pt" viewBox="0 0 1452.000000 63.000000"
 preserveAspectRatio="xMidYMid meet">

<g transform="translate(0.000000,63.000000) scale(0.100000,-0.100000)"
fill="#D1C4FF" stroke="none">
<path d="M1365 625 c-5 -2 -22 -6 -37 -9 -19 -4 -28 -13 -28 -26 0 -11 6 -20
14 -20 27 0 27 -30 0 -42 -22 -10 -28 -9 -39 5 -9 12 -27 17 -67 17 -68 0
-118 -30 -132 -78 -5 -17 -15 -32 -22 -32 -8 0 -24 -16 -36 -35 -13 -19 -33
-40 -46 -46 -16 -9 -21 -20 -20 -38 3 -22 -1 -25 -19 -23 -13 2 -23 -2 -23 -8
0 -6 -8 -14 -17 -18 -46 -19 -94 -56 -92 -71 3 -28 -1 -36 -10 -22 -7 10 -35
15 -95 18 -83 3 -87 2 -96 -21 -12 -33 -20 -36 -55 -21 -16 7 -24 14 -17 14 6
1 12 8 12 16 0 8 9 15 20 15 13 0 20 7 20 20 0 11 -5 20 -11 20 -6 0 -36 27
-66 60 -55 59 -83 74 -83 45 0 -9 -11 -20 -24 -25 -13 -5 -27 -18 -31 -30 -10
-31 -19 -15 -20 31 0 40 4 46 21 29 5 -5 15 -5 23 -1 19 12 2 37 -40 60 -19
10 -35 27 -37 39 -4 23 -88 122 -103 122 -24 0 -21 -34 4 -56 15 -13 27 -26
27 -29 0 -7 -75 -7 -83 1 -3 3 -1 18 4 32 11 29 5 37 -34 46 -35 8 -49 -18
-21 -39 18 -13 17 -14 -10 -12 -46 3 -42 -20 9 -44 26 -12 52 -30 58 -41 14
-22 33 -23 41 -3 3 8 16 15 28 15 17 0 19 -3 9 -9 -10 -6 -12 -19 -7 -44 7
-35 27 -59 61 -71 15 -5 16 -9 6 -15 -18 -11 23 -97 50 -104 11 -3 23 -14 26
-25 2 -11 16 -25 29 -31 13 -6 24 -17 24 -26 0 -38 148 -95 246 -95 42 0 81
14 95 34 4 5 32 5 63 2 46 -6 56 -5 56 7 0 8 12 18 28 22 15 3 36 15 47 24 11
10 31 21 45 24 14 4 33 19 42 34 9 15 46 59 82 98 36 38 66 75 66 82 0 7 18
29 40 49 39 37 51 64 28 64 -6 0 -9 2 -7 5 8 8 79 -15 79 -25 0 -6 14 -10 31
-10 22 0 32 5 36 20 7 26 22 25 65 -4 20 -13 52 -29 72 -36 30 -10 36 -16 36
-40 0 -32 31 -50 54 -31 10 9 15 8 20 -4 3 -9 0 -15 -9 -15 -22 0 -18 -19 8
-45 12 -13 60 -64 107 -115 60 -64 90 -90 102 -87 11 3 18 0 18 -8 0 -17 93
-52 150 -57 40 -3 44 -1 50 22 3 15 14 26 27 28 17 3 20 -1 16 -17 -6 -25 13
-27 95 -11 38 7 60 18 84 43 18 19 41 37 51 40 10 4 18 15 17 24 -3 29 11 63
26 63 8 0 14 5 14 10 0 6 15 10 34 10 30 0 40 8 87 70 29 38 68 77 86 87 18
10 33 21 33 25 0 5 8 8 18 8 9 1 28 7 41 14 15 8 36 10 62 6 22 -4 42 -3 45 1
9 15 41 10 48 -6 3 -8 12 -15 21 -15 8 0 15 -4 15 -10 0 -16 30 -12 36 5 10
25 31 17 38 -15 3 -16 12 -30 19 -30 7 0 27 -16 43 -35 18 -22 36 -34 48 -33
10 2 23 -5 27 -14 5 -10 13 -26 17 -35 13 -27 41 -40 51 -24 12 19 31 4 31
-25 l0 -26 -35 22 c-19 12 -43 20 -52 18 -35 -7 107 -128 150 -128 8 0 17 -7
20 -14 8 -21 61 -46 76 -36 11 6 9 12 -7 28 l-20 20 37 -2 c32 -1 36 -4 36
-26 0 -25 4 -26 70 -19 6 0 25 -2 43 -6 28 -7 32 -5 32 13 0 14 -9 21 -30 26
-16 3 -30 10 -30 15 0 15 53 20 67 6 31 -31 159 14 165 58 2 17 13 24 45 32
42 10 84 46 137 117 27 36 41 84 37 126 -2 18 -28 15 -36 -5 -6 -16 -8 -15
-16 6 -7 18 -14 22 -34 17 -18 -5 -25 -2 -25 9 0 22 -34 18 -58 -8 -24 -25
-45 -75 -37 -87 3 -5 -5 -14 -17 -21 -28 -14 -88 -74 -88 -88 0 -12 -55 -31
-94 -31 -37 0 -50 -8 -60 -35 -5 -13 -10 -15 -13 -7 -3 6 -11 12 -18 12 -7 0
-15 5 -17 10 -2 6 -20 13 -41 17 -30 4 -37 3 -37 -11 0 -18 -15 -22 -25 -6 -3
6 -16 10 -28 11 l-22 0 23 9 c27 12 28 22 1 46 -17 15 -23 16 -40 6 -16 -10
-19 -10 -19 3 0 8 -4 15 -10 15 -5 0 -10 9 -10 19 0 12 -12 24 -29 32 -17 7
-32 21 -34 31 -3 10 -14 18 -25 18 -23 0 -36 38 -20 57 14 17 4 27 -45 43 -36
11 -92 57 -112 93 -13 22 -120 50 -161 42 -18 -3 -38 -13 -45 -21 -11 -14 -14
-13 -21 5 -9 26 -39 27 -92 2 -23 -11 -62 -28 -88 -39 -50 -22 -56 -30 -36
-50 9 -9 7 -12 -9 -12 -12 0 -35 -11 -51 -25 -17 -14 -34 -25 -40 -25 -15 0
-21 -38 -8 -49 9 -7 17 -4 29 10 10 11 22 17 28 13 7 -4 5 -12 -6 -24 -8 -9
-13 -23 -10 -31 3 -9 -7 -21 -26 -32 -27 -15 -36 -16 -65 -5 -45 16 -68 -3
-61 -49 6 -33 5 -34 -38 -37 -34 -2 -85 -39 -80 -57 4 -11 -2 -18 -15 -22 -15
-4 -20 0 -20 14 0 20 -24 26 -35 9 -8 -13 -88 -6 -93 9 -5 14 -32 14 -32 0 0
-14 -25 -6 -26 9 -1 7 -2 16 -3 21 0 5 -11 13 -23 16 -43 13 -96 56 -102 83
-9 42 -66 101 -105 109 -33 6 -34 6 -27 -23 l6 -29 -21 25 c-12 14 -16 26 -10
28 19 6 12 34 -21 78 -25 34 -45 47 -82 59 -27 8 -61 15 -75 15 -14 0 -38 6
-52 14 -30 15 -70 25 -84 21z m108 -95 c-4 -16 -11 -19 -32 -13 -36 8 -36 10
-4 26 33 18 43 14 36 -13z m1467 15 c7 -9 11 -18 8 -21 -8 -8 -58 18 -52 27 8
14 30 10 44 -6z m-240 -15 c-20 -13 -40 -13 -40 0 0 6 12 10 28 10 21 0 24 -2
12 -10z m-1125 -22 c31 -14 32 -25 3 -34 -13 -4 -26 -12 -30 -18 -13 -20 -30
9 -22 38 7 29 12 31 49 14z m1446 -50 c20 -18 28 -27 19 -20 -21 15 -50 16
-50 0 0 -7 -7 -2 -16 10 -14 21 -12 42 5 42 4 0 23 -15 42 -32z m-1372 -17
c-16 -5 -33 15 -24 30 6 9 12 7 22 -7 9 -13 10 -20 2 -23z m-529 -20 c0 -5 -7
-14 -15 -21 -8 -7 -15 -9 -15 -5 0 4 -7 2 -15 -5 -12 -10 -15 -10 -15 4 0 9 8
16 20 16 11 0 20 5 20 10 0 6 5 10 10 10 6 0 10 -4 10 -9z m620 -104 c0 -7 9
-23 20 -35 11 -12 20 -24 20 -28 0 -10 -29 17 -51 48 -17 23 -18 28 -5 28 9 0
16 -6 16 -13z m-730 -63 c0 -2 -9 -4 -21 -4 -11 0 -18 4 -14 10 5 8 35 3 35
-6z m-526 -15 c5 -5 6 -12 1 -16 -4 -5 -10 -2 -12 5 -3 6 -18 12 -34 12 -16 0
-29 4 -29 10 0 11 60 2 74 -11z m1874 -1 c-5 -16 -48 -24 -48 -9 0 8 17 16 43
20 5 0 7 -5 5 -11z m-486 -48 c5 0 8 -8 8 -17 -1 -14 -6 -11 -25 12 -14 17
-25 37 -25 45 0 9 8 3 18 -12 9 -16 20 -28 24 -28z m35 8 c-3 -8 -6 -5 -6 6
-1 11 2 17 5 13 3 -3 4 -12 1 -19z m-907 8 c0 -2 -7 -9 -15 -16 -13 -11 -14
-10 -9 4 5 14 24 23 24 12z m-71 -72 c-15 -18 -16 -18 -21 11 -4 21 -3 23 14
14 15 -8 17 -13 7 -25z m2346 -4 c-3 -5 -12 -7 -20 -4 -11 5 -12 10 -2 25 10
16 13 16 20 4 4 -8 5 -19 2 -25z m395 30 c0 -5 -7 -10 -16 -10 -8 0 -12 5 -9
10 3 6 10 10 16 10 5 0 9 -4 9 -10z m-1390 -25 c0 -8 -4 -15 -10 -15 -5 0 -7
7 -4 15 4 8 8 15 10 15 2 0 4 -7 4 -15z m-1591 -21 c7 -7 -3 -11 -39 -18 -19
-3 -29 -3 -22 0 6 3 12 12 12 21 0 10 6 12 23 7 12 -3 24 -8 26 -10z m1351
-19 c0 -18 -5 -25 -19 -25 -11 0 -21 6 -24 13 -7 20 4 37 24 37 14 0 19 -7 19
-25z m66 10 c-21 -16 -32 -13 -21 4 3 6 14 11 23 11 15 -1 15 -2 -2 -15z
m1224 -15 c0 -5 -7 -7 -15 -4 -8 4 -15 8 -15 10 0 2 7 4 15 4 8 0 15 -4 15
-10z"/>
<path d="M13772 622 c-31 -5 -39 -29 -16 -47 18 -13 18 -14 1 -15 -10 0 -20
-7 -24 -16 -3 -9 -12 -13 -21 -9 -21 8 -106 -22 -127 -45 -13 -15 -15 -23 -7
-33 19 -22 -6 -39 -28 -19 -16 13 -16 17 -4 29 18 19 18 33 -2 33 -28 0 -82
-50 -98 -91 -11 -27 -22 -39 -35 -39 -11 0 -22 -8 -25 -17 -3 -10 -20 -26 -37
-35 -18 -11 -37 -34 -47 -58 -14 -33 -21 -40 -39 -37 -12 2 -24 0 -25 -5 -2
-5 -24 -11 -48 -14 -25 -3 -52 -11 -60 -18 -28 -24 -38 -26 -36 -8 0 11 -7 18
-21 20 -13 2 -23 -1 -23 -7 0 -6 -5 -11 -11 -11 -6 0 -8 7 -5 15 4 11 -3 19
-22 26 -15 5 -59 42 -98 80 -66 66 -72 69 -88 54 -17 -17 -19 -14 -16 22 2 27
-55 112 -75 114 -24 2 -29 4 -65 27 -19 12 -68 39 -109 59 -72 37 -77 38 -165
35 -53 -2 -100 -9 -115 -17 -15 -8 -43 -21 -64 -29 -27 -11 -42 -25 -52 -50
-8 -20 -30 -44 -52 -57 -48 -29 -123 -100 -123 -116 0 -7 -8 -21 -18 -30 -50
-48 -92 -83 -101 -83 -6 0 -14 -7 -19 -16 -6 -11 -12 -13 -16 -6 -5 8 -18 5
-44 -8 -22 -12 -56 -20 -85 -20 -41 0 -48 -3 -45 -17 2 -12 14 -19 35 -21 23
-2 30 -7 26 -18 -7 -20 -78 -18 -114 3 -34 20 -45 43 -21 44 9 1 22 2 27 4 6
1 16 3 23 3 6 1 12 11 12 21 0 14 -17 28 -55 47 -38 18 -61 37 -72 58 -8 17
-25 39 -37 48 -23 19 -71 24 -81 8 -9 -15 -25 -12 -25 5 0 8 -4 15 -9 15 -5 0
-7 9 -4 21 3 11 9 17 12 12 10 -16 37 -22 52 -12 12 8 11 12 -3 23 -10 7 -18
18 -18 24 0 6 -10 17 -22 23 -13 6 -36 25 -51 41 -26 28 -29 29 -41 13 -9 -13
-15 -15 -20 -7 -4 7 -5 16 -2 20 11 18 -14 34 -59 40 -30 3 -50 1 -54 -7 -5
-7 -12 -3 -20 13 -11 21 -21 24 -64 24 -28 1 -55 -2 -60 -5 -6 -3 -28 -8 -51
-10 -23 -1 -52 -7 -66 -12 -14 -5 -38 -12 -55 -16 -32 -7 -275 -244 -275 -268
0 -13 -52 -57 -67 -57 -5 0 -16 -9 -26 -20 -16 -20 -60 -26 -131 -21 -16 2
-33 -3 -38 -11 -7 -10 -10 -10 -19 4 -12 21 -39 24 -39 5 0 -7 -8 -13 -19 -13
-12 0 -17 6 -14 17 3 10 -5 24 -19 33 -12 9 -28 31 -34 49 -11 33 -43 54 -119
77 -80 24 -78 22 -22 34 45 10 34 39 -40 102 -107 90 -249 147 -288 114 -12
-10 -18 -10 -30 0 -31 25 -135 -10 -135 -47 0 -10 10 -12 40 -7 28 5 40 3 40
-5 0 -8 12 -11 32 -9 24 2 33 -1 36 -14 2 -12 -2 -15 -16 -11 -16 4 -66 -3
-139 -21 -16 -3 -23 0 -23 10 0 8 5 14 10 14 12 0 13 27 2 34 -13 8 -172 -73
-172 -87 0 -15 -57 -77 -71 -77 -6 0 -17 -17 -25 -37 -19 -43 -117 -160 -122
-144 -6 18 -42 13 -50 -7 -6 -15 -18 -18 -74 -18 -38 1 -68 4 -68 7 0 12 -59
31 -75 25 -9 -3 -15 0 -15 10 0 8 -13 17 -29 20 -19 4 -28 11 -24 19 8 22 -16
54 -54 73 -38 18 -45 27 -59 77 -5 17 -19 34 -32 40 -12 5 -22 15 -22 21 0 15
-34 44 -52 44 -9 0 -21 6 -27 14 -6 7 -25 16 -41 20 -17 3 -30 12 -30 21 0 16
-22 23 -85 27 -33 3 -40 0 -39 -15 2 -21 -22 -23 -30 -2 -3 8 -15 15 -26 15
-11 0 -20 5 -20 10 0 26 -74 3 -97 -30 -7 -10 -24 -21 -38 -24 -14 -4 -25 -13
-25 -21 0 -10 -10 -15 -27 -15 -51 0 -103 -20 -103 -39 0 -9 -13 -30 -30 -46
-17 -16 -30 -34 -30 -41 0 -6 -7 -14 -15 -18 -8 -3 -15 -12 -15 -19 0 -8 -9
-22 -21 -33 -11 -10 -18 -26 -16 -36 5 -19 -31 -48 -60 -48 -10 0 -28 -7 -40
-15 -12 -8 -40 -16 -63 -18 -23 -2 -44 -7 -48 -12 -8 -12 -102 -15 -102 -3 0
4 -7 8 -15 8 -22 0 -143 77 -170 108 -13 15 -26 44 -29 64 -6 38 -29 54 -60
42 -11 -4 -25 3 -41 20 -13 14 -31 26 -40 26 -8 0 -15 5 -15 10 0 7 6 7 19 0
29 -15 41 -12 41 10 0 11 -12 26 -28 34 -16 8 -34 21 -41 30 -9 11 -28 14 -77
11 -61 -4 -64 -3 -70 20 -11 44 -108 52 -232 19 -68 -18 -73 -20 -67 -43 5
-21 3 -23 -20 -17 -20 5 -34 -2 -73 -36 -26 -23 -49 -44 -51 -45 -2 -2 -5 -11
-6 -21 -5 -44 -18 -72 -35 -72 -18 0 -50 -30 -50 -48 0 -14 -54 -52 -74 -52
-24 0 -42 -45 -26 -65 10 -12 8 -16 -11 -24 -24 -9 -101 -8 -129 2 -52 18
-125 37 -141 37 -11 0 -19 6 -19 13 0 21 -46 59 -66 55 -11 -2 -18 2 -16 10 4
20 -27 72 -43 72 -8 0 -15 9 -15 20 0 11 -7 20 -15 20 -8 0 -26 18 -40 40 -32
51 -45 56 -106 42 -41 -10 -58 -9 -104 6 -30 9 -55 20 -55 25 0 11 18 9 40 -5
15 -10 27 -10 51 -1 21 8 38 9 50 3 26 -15 49 -12 49 5 0 15 -68 55 -94 55 -8
0 -17 -6 -20 -12 -3 -9 -8 -8 -16 5 -6 9 -18 17 -25 17 -8 0 -15 6 -15 14 0 8
-7 16 -15 20 -20 7 -107 -4 -122 -17 -9 -6 -23 -5 -42 3 -40 16 -86 5 -144
-36 -26 -19 -51 -34 -55 -34 -16 0 -102 -108 -102 -129 0 -5 -10 -11 -22 -15
-13 -3 -47 -37 -77 -75 -30 -38 -64 -72 -77 -75 -12 -3 -30 -13 -38 -22 -22
-21 -172 -27 -203 -7 -14 8 -33 11 -48 7 -22 -5 -25 -3 -25 20 0 19 -5 26 -20
26 -15 0 -20 7 -20 25 0 25 -54 95 -74 95 -12 0 -39 37 -42 59 -4 21 -104 109
-134 117 -14 4 -42 19 -63 33 -34 21 -41 23 -59 12 -18 -11 -22 -11 -30 3 -14
25 -123 16 -123 -10 0 -5 -8 -20 -18 -34 l-17 -24 0 33 c0 32 -2 33 -29 28
-16 -4 -50 -16 -74 -27 -39 -18 -45 -26 -51 -60 -7 -48 0 -70 25 -70 12 0 23
-10 29 -25 12 -31 39 -32 100 -2 25 12 59 22 75 21 37 0 142 -31 150 -43 3 -5
14 -7 25 -4 16 4 20 0 20 -18 0 -15 13 -34 35 -52 19 -15 35 -34 35 -41 0 -20
77 -86 94 -80 9 3 24 -11 42 -40 29 -45 48 -57 57 -34 3 9 12 6 28 -9 13 -13
18 -23 11 -23 -6 0 -12 -7 -12 -16 0 -17 84 -59 100 -49 18 11 10 33 -15 39
-27 7 -35 36 -10 36 9 0 21 11 27 25 13 29 28 33 29 8 1 -10 2 -29 2 -43 2
-16 9 -26 25 -30 13 -3 22 -7 21 -10 -1 -3 3 -15 10 -28 11 -21 17 -22 64 -16
70 9 118 27 188 70 64 38 156 124 204 189 29 39 59 73 146 163 39 41 59 52 59
33 0 -12 51 -29 68 -24 20 7 14 21 -15 37 l-28 15 33 1 c26 0 32 -4 32 -21 0
-11 5 -19 12 -17 6 2 25 -9 42 -25 17 -15 43 -31 58 -34 15 -3 30 -13 33 -22
2 -9 24 -38 48 -64 24 -26 49 -59 55 -73 9 -18 19 -25 35 -23 30 4 46 -7 40
-30 -6 -24 13 -61 32 -61 9 0 23 -9 32 -20 21 -24 43 -26 43 -5 0 8 3 15 8 15
17 -1 30 -17 29 -35 -3 -29 77 -69 105 -52 16 10 21 9 29 -5 10 -18 70 -25
103 -12 24 9 19 34 -6 35 -17 1 -19 2 -5 6 9 2 17 8 17 13 0 5 6 7 13 4 8 -3
19 1 25 9 12 14 80 16 101 3 5 -4 23 5 39 19 16 13 32 22 35 18 4 -3 9 2 13
11 4 9 33 42 65 73 33 31 59 62 59 70 0 7 11 18 25 23 15 6 25 17 25 29 0 11
9 21 23 25 12 3 30 12 40 20 15 12 16 18 8 35 -10 17 -9 20 5 14 10 -4 20 0
25 10 12 21 157 17 213 -7 21 -9 45 -16 53 -16 8 0 65 -52 126 -115 92 -94
117 -115 141 -115 25 0 27 -2 15 -16 -12 -14 -9 -20 21 -45 19 -16 42 -29 52
-29 10 0 18 -6 18 -14 0 -40 168 -65 189 -29 9 17 11 17 25 -2 14 -19 16 -19
48 -3 40 20 86 32 113 29 22 -2 68 42 97 94 12 20 17 24 18 13 0 -33 28 -18
77 40 26 31 71 83 100 115 29 32 53 65 53 73 0 8 9 14 20 14 12 0 32 7 46 16
32 21 139 12 195 -17 l39 -19 0 21 c0 11 -13 33 -28 49 l-29 28 27 6 c24 4 26
9 22 38 -2 18 -1 29 4 25 12 -11 14 -67 3 -67 -5 0 -9 -9 -9 -21 0 -18 4 -20
31 -14 23 5 34 3 44 -11 16 -23 0 -37 -26 -23 -22 11 -33 -4 -25 -34 9 -32 65
-89 90 -92 11 -1 24 -3 28 -4 3 0 4 -10 1 -20 -7 -28 25 -71 53 -71 15 0 24
-6 24 -15 0 -18 20 -56 35 -67 6 -5 17 -7 25 -7 31 2 40 -1 40 -16 0 -8 5 -15
10 -15 6 0 10 -6 10 -14 0 -8 15 -15 39 -19 22 -3 54 -12 72 -21 36 -18 69
-21 69 -6 0 16 36 12 50 -5 9 -11 16 -13 24 -5 5 5 22 10 36 10 15 0 50 7 79
16 40 11 51 19 49 32 -3 9 -10 16 -18 14 -80 -18 -79 -20 -22 37 30 29 51 59
48 66 -2 7 2 16 10 19 8 3 14 1 14 -5 0 -6 13 -7 34 -4 25 5 35 3 39 -9 4 -9
15 -16 25 -16 20 0 52 29 52 47 0 6 7 13 15 17 8 3 15 17 15 31 0 28 47 76 93
96 15 6 30 22 33 36 5 17 10 21 19 13 16 -13 85 14 85 34 0 19 63 28 73 10 4
-8 19 -14 32 -14 16 0 25 -6 25 -15 0 -8 7 -15 15 -15 9 0 38 -20 64 -45 26
-25 55 -45 63 -45 9 0 24 -21 36 -50 16 -38 26 -50 42 -50 12 0 19 -4 16 -8
-8 -13 11 -35 32 -37 21 -1 82 -56 82 -73 0 -15 23 -21 42 -10 11 5 15 15 11
26 -4 14 -2 13 10 -3 9 -11 17 -27 17 -36 0 -34 48 -63 110 -67 63 -5 70 1 49
40 -9 16 -17 19 -43 14 -23 -5 -37 -2 -46 9 -7 8 -18 15 -25 15 -7 0 -15 11
-17 24 -5 23 -3 24 21 14 14 -5 36 -18 47 -29 15 -14 29 -18 48 -13 21 5 27 2
36 -20 6 -16 17 -26 30 -26 12 0 20 -7 20 -16 0 -12 7 -14 33 -9 39 9 37 7 42
35 6 31 15 38 15 12 0 -24 15 -27 55 -12 20 8 26 16 22 29 -5 20 33 48 51 37
5 -3 21 3 33 13 18 15 21 22 12 31 -15 16 -1 63 29 93 26 27 58 42 58 27 0
-27 69 18 70 46 0 5 16 20 36 34 19 14 41 30 47 36 23 20 55 34 81 34 14 0 27
4 31 9 3 6 18 3 36 -7 29 -16 31 -16 44 2 13 17 15 17 15 3 0 -9 18 -24 45
-36 25 -11 45 -24 45 -29 0 -4 36 -39 80 -78 44 -38 80 -72 80 -76 0 -4 20
-28 44 -54 31 -32 53 -46 73 -48 36 -1 63 -28 56 -55 -4 -16 -1 -21 15 -21 11
0 22 7 26 15 8 23 31 18 46 -10 16 -30 43 -32 70 -5 11 11 32 20 46 20 23 0
24 -1 10 -16 -9 -8 -14 -20 -11 -25 7 -10 78 -12 88 -3 3 4 33 16 66 28 76 27
178 106 186 143 9 41 21 58 38 55 33 -6 119 126 89 136 -30 10 -7 20 34 16 42
-4 46 -2 41 16 -4 15 0 20 13 20 11 0 22 4 25 10 8 14 95 9 127 -7 37 -18 75
-16 86 3 13 24 29 10 36 -31 7 -37 32 -57 45 -36 6 9 11 8 21 -4 7 -9 19 -14
27 -11 7 3 19 -7 28 -24 9 -17 20 -30 25 -30 6 0 10 -5 10 -12 0 -6 -10 -2
-23 10 -29 27 -47 28 -47 3 0 -23 120 -133 137 -126 7 2 17 -5 23 -15 13 -23
40 -27 40 -5 0 18 16 20 26 3 4 -6 2 -14 -4 -16 -7 -2 -12 -17 -12 -32 0 -24
8 -34 43 -55 49 -28 87 -33 87 -11 0 8 -4 17 -9 20 -5 3 -11 17 -14 31 -3 20
-1 25 10 21 8 -3 22 -6 31 -7 11 0 12 -2 5 -6 -7 -2 -13 -13 -13 -24 0 -15 8
-19 38 -20 20 -1 29 -3 20 -6 -10 -2 -18 -13 -18 -24 0 -16 7 -19 54 -19 74 0
150 16 213 45 52 23 79 55 55 63 -22 7 -12 19 36 42 28 13 58 37 70 56 12 19
29 34 37 34 9 0 15 9 15 23 0 17 9 27 33 38 17 8 36 24 42 37 5 12 14 22 18
22 5 0 21 8 35 19 15 10 52 27 83 39 51 19 60 19 113 7 64 -15 136 -57 143
-84 2 -9 19 -27 37 -39 20 -14 36 -34 39 -51 8 -38 120 -141 154 -141 13 0 38
-9 54 -21 34 -24 84 -23 84 3 0 9 4 20 8 24 12 13 8 34 -8 34 -8 0 -15 4 -15
8 0 5 -11 14 -24 20 -19 8 -25 21 -31 64 -7 48 -13 59 -71 115 -34 35 -69 75
-76 90 -10 22 -21 29 -51 31 -21 2 -37 8 -37 16 0 14 -38 44 -87 70 l-32 16
-9 -32 -9 -33 -7 42 c-7 38 -11 43 -39 47 -57 9 -92 11 -115 8z m-4019 -62
c-6 -24 -26 -21 -31 3 -2 11 3 17 16 17 15 0 19 -5 15 -20z m-2783 0 c0 -5 -4
-10 -9 -10 -6 0 -13 5 -16 10 -3 6 1 10 9 10 9 0 16 -4 16 -10z m-122 -35 c-1
-1 -13 -6 -25 -9 -17 -6 -23 -3 -23 9 0 21 44 38 48 18 2 -8 2 -16 0 -18z
m-2688 15 c0 -5 -7 -10 -15 -10 -8 0 -15 5 -15 10 0 6 7 10 15 10 8 0 15 -4
15 -10z m160 -5 c10 -12 10 -15 -2 -15 -8 0 -18 4 -23 9 -6 5 -26 11 -45 14
-31 3 -29 4 11 5 31 1 51 -3 59 -13z m5520 5 c0 -5 -4 -10 -10 -10 -5 0 -10 5
-10 10 0 6 5 10 10 10 6 0 10 -4 10 -10z m-2838 -32 c-9 -9 -12 -7 -12 12 0
19 3 21 12 12 9 -9 9 -15 0 -24z m5405 26 c-3 -3 -12 -4 -19 -1 -8 3 -5 6 6 6
11 1 17 -2 13 -5z m-71 -40 c-19 -18 -21 -11 -4 19 7 14 13 17 15 10 3 -7 -3
-20 -11 -29z m-2417 2 c9 -11 7 -13 -11 -11 -30 3 -30 3 -23 15 9 14 20 13 34
-4z m931 -6 c0 -5 -9 -10 -21 -10 -11 0 -17 5 -14 10 3 6 13 10 21 10 8 0 14
-4 14 -10z m-2688 -22 c-7 -7 -12 -8 -12 -2 0 14 12 26 19 19 2 -3 -1 -11 -7
-17z m5578 6 c0 -14 -3 -15 -17 -3 -10 7 -20 15 -22 16 -2 2 5 3 17 3 14 0 22
-6 22 -16z m-4310 -4 c0 -5 -5 -10 -11 -10 -5 0 -7 5 -4 10 3 6 8 10 11 10 2
0 4 -4 4 -10z m416 -21 c19 -11 34 -25 34 -30 0 -6 15 -7 35 -3 35 6 40 1 36
-34 -1 -8 2 -19 8 -25 15 -19 40 -97 30 -97 -5 0 -11 12 -15 28 -10 49 -14 53
-32 48 -19 -6 -72 51 -72 78 0 9 -14 19 -32 24 -17 4 -33 13 -36 20 -5 17 6
15 44 -9z m1459 2 c10 -17 -9 -20 -30 -5 -18 14 -18 14 2 14 12 0 24 -4 28 -9z
m2835 -61 c-1 -8 -9 1 -20 20 -25 46 -25 63 0 25 11 -16 20 -37 20 -45z
m-8833 36 c-2 -6 0 -19 4 -28 6 -10 5 -19 -1 -23 -5 -3 -12 6 -16 20 -3 14
-13 25 -22 25 -27 0 -62 -41 -63 -74 0 -17 -3 -25 -6 -18 -2 6 -11 12 -19 12
-23 0 -16 24 17 61 24 28 38 35 70 35 26 1 38 -3 36 -10z m1813 -6 c0 -5 -2
-10 -4 -10 -3 0 -8 5 -11 10 -3 6 -1 10 4 10 6 0 11 -4 11 -10z m-2694 -18
c31 -25 37 -50 14 -62 -12 -7 -21 -7 -25 0 -3 5 -1 10 4 10 18 0 12 22 -11 47
-25 27 -13 31 18 5z m6859 -13 c12 -19 -5 -23 -22 -6 -16 16 -16 17 -1 17 9 0
20 -5 23 -11z m2205 -14 c-7 -9 -15 -13 -18 -10 -3 2 1 11 8 20 7 9 15 13 18
10 3 -2 -1 -11 -8 -20z m-6851 -39 c-9 -8 -10 -7 -5 7 3 10 7 24 7 30 1 7 3 4
6 -7 3 -10 -1 -23 -8 -30z m1941 34 c12 -6 17 -16 13 -26 -5 -13 -8 -13 -24 2
-31 28 -24 43 11 24z m-1360 -56 c0 -20 -7 -17 -20 6 -9 16 -8 18 5 14 8 -4
15 -12 15 -20z m4255 -24 c6 0 18 -11 25 -25 7 -14 19 -25 26 -25 7 0 18 -9
23 -19 9 -17 6 -19 -25 -23 -31 -4 -38 -1 -47 21 -6 14 -16 33 -23 41 -6 8
-14 29 -18 45 -6 30 -6 30 10 8 9 -13 22 -23 29 -23z m-4176 14 c3 -3 0 -9 -5
-14 -7 -7 -17 -3 -30 11 -19 22 -19 22 6 14 14 -4 27 -9 29 -11z m1335 -54
c-8 -8 -16 -4 -27 13 -21 32 -9 43 17 17 14 -14 17 -23 10 -30z m684 15 l27 7
-24 -26 -25 -26 -13 31 c-7 17 -13 36 -12 43 0 6 5 0 10 -13 8 -19 14 -22 37
-16z m2079 29 c-3 -3 -12 -4 -19 -1 -8 3 -5 6 6 6 11 1 17 -2 13 -5z m-1317
-30 c0 -9 8 -23 18 -30 11 -9 13 -13 4 -14 -7 0 -10 -4 -7 -10 9 -14 -8 -12
-27 3 -15 10 -23 36 -19 60 2 15 31 6 31 -9z m3320 -19 c-4 -20 -14 -42 -21
-51 -11 -14 -13 -14 -22 1 -6 12 -1 26 18 51 14 18 28 34 29 34 2 0 0 -16 -4
-35z m-6050 -7 c0 -30 -1 -31 -16 -16 -9 9 -14 24 -11 32 11 27 27 17 27 -16z
m532 -20 c-7 -7 -12 -8 -12 -2 0 14 12 26 19 19 2 -3 -1 -11 -7 -17z m830 10
c11 -7 31 -23 44 -35 13 -13 28 -23 34 -23 5 0 10 -4 10 -10 0 -5 -7 -10 -15
-10 -8 0 -15 -8 -16 -17 0 -14 -2 -13 -9 5 -5 12 -16 25 -25 28 -8 4 -15 11
-15 17 0 6 -10 21 -22 34 -24 26 -19 30 14 11z m-1282 -43 c0 -8 12 -17 28
-21 72 -16 70 -29 -2 -15 -54 10 -80 30 -70 54 5 13 10 14 25 6 10 -5 19 -16
19 -24z m-2377 6 c-6 -23 -43 -36 -43 -16 0 13 26 34 42 35 3 0 4 -9 1 -19z
m6857 -6 c0 -16 -27 -28 -36 -14 -7 12 15 41 27 33 5 -3 9 -11 9 -19z m2354
-24 c-6 -6 -11 1 -18 29 l-7 25 15 -25 c8 -14 12 -27 10 -29z m-6514 5 c0 -3
-4 -8 -10 -11 -5 -3 -10 -1 -10 4 0 6 5 11 10 11 6 0 10 -2 10 -4z m2775 -6
c-3 -5 -13 -10 -21 -10 -8 0 -12 5 -9 10 3 6 13 10 21 10 8 0 12 -4 9 -10z
m1329 -22 c-3 -4 -16 -2 -29 4 -13 6 -22 14 -20 19 3 4 16 2 29 -4 13 -7 22
-15 20 -19z m-6916 -25 c2 -20 10 -33 20 -36 12 -3 10 -6 -10 -11 -22 -7 -32
-2 -60 27 l-34 35 26 10 c40 16 55 10 58 -25z m2690 24 c30 -19 -22 -36 -62
-21 -12 5 -13 9 -3 20 12 14 43 14 65 1z m5615 -13 c-26 -19 -35 -17 -21 5 6
10 18 17 25 14 11 -4 10 -8 -4 -19z m101 -5 c-3 -5 -14 -9 -26 -9 -17 0 -18 3
-8 14 12 15 44 10 34 -5z"/>
<path d="M13670 585 c0 -8 9 -15 20 -15 11 0 20 7 20 15 0 8 -9 15 -20 15 -11
0 -20 -7 -20 -15z"/>
<path d="M9232 133 c-35 -27 -39 -38 -17 -47 14 -5 75 38 75 54 0 19 -29 16
-58 -7z"/>
<path d="M14400 136 c0 -18 30 -30 43 -17 5 5 6 14 3 20 -10 16 -46 13 -46 -3z"/>
</g>
</svg>
